<svg xmlns="http://www.w3.org/2000/svg" width="540.915" height="540.915" viewBox="0 0 540.915 540.915"><path d="M78.468,398.569a8.9,8.9,0,1,1,0,3.559H0v-3.559ZM363.16,483.976a8.9,8.9,0,1,1,0,3.559H145.9v-3.559Zm102.845-81.849a8.9,8.9,0,1,1,0-3.559h74.91v3.559Zm0,28.469a8.9,8.9,0,1,1,0-3.559h74.91V430.6Zm11.032-202.843a8.9,8.9,0,1,1,0,3.559H323.659a8.9,8.9,0,1,1,0-3.559ZM21.53,142.346a8.9,8.9,0,1,1,0,3.559H0v-3.559H21.53Zm330.6,60.5a8.9,8.9,0,1,1,0-3.559H505.506a8.9,8.9,0,1,1,0,3.559ZM459.066,21.53a8.9,8.9,0,1,1-3.559,0V0h3.559Zm-113.877,370.1a8.9,8.9,0,1,1-3.559,0V295.19a8.9,8.9,0,1,1,3.559,0ZM430.6,38.967V142.346H540.915V145.9H427.038V38.967a8.9,8.9,0,1,1,3.559,0Zm28.469,28.469v46.44h81.849v3.559H455.507v-50a8.9,8.9,0,1,1,3.559,0ZM231.312,238.252V370.1h28.469v21.53a8.9,8.9,0,1,1-3.559,0V373.658H227.754V238.252a8.9,8.9,0,1,1,3.559,0Zm-10.5-38.967a8.9,8.9,0,1,1,0,3.559H202.843v85.408h-50a8.9,8.9,0,1,1,0-3.559h46.44V199.284h21.53ZM209.782,430.6a8.9,8.9,0,1,1,0-3.559H313.161V295.19a8.9,8.9,0,1,1,3.559,0V430.6ZM181.313,316.72a8.9,8.9,0,1,1,0-3.559h21.53v85.408h17.971a8.9,8.9,0,1,1,0,3.559h-21.53V316.72ZM117.435,505.506a8.9,8.9,0,1,1-3.559,0V487.535H88.966v53.38H85.408V483.976h32.028ZM420.1,313.161a8.9,8.9,0,1,1,0,3.559H402.127V483.976h85.408v56.938h-3.559v-53.38H398.569V313.161Zm45.907-53.38a8.9,8.9,0,1,1,0-3.559h21.53v78.468a8.9,8.9,0,1,1-3.559,0v-74.91ZM352.128,430.6a8.9,8.9,0,1,1,0-3.559H370.1V284.692h28.469V259.781h-74.91a8.9,8.9,0,1,1,0-3.559h78.468v32.028H373.658V430.6ZM505.506,56.938a8.9,8.9,0,1,1,0,3.559h-21.53V0h3.559V56.938h17.971ZM174.374,181.313v78.468H95.906a8.9,8.9,0,1,1,0-3.559h74.91v-74.91a8.9,8.9,0,1,1,3.559,0ZM95.906,60.5a8.9,8.9,0,1,1,0-3.559h46.44V0H145.9V60.5Zm106.937,6.939v50H145.9V231.312h-21.53a8.9,8.9,0,1,1,0-3.559h17.971V113.877h56.938V67.436a8.9,8.9,0,1,1,3.559,0ZM181.313,145.9a8.9,8.9,0,1,1,0-3.559h46.44V67.436a8.9,8.9,0,1,1,3.559,0V145.9ZM209.782,32.028a8.9,8.9,0,1,1,0-3.559h50v78.468a8.9,8.9,0,1,1-3.559,0V32.028ZM391.629,512.446a8.9,8.9,0,1,1,0,3.559H174.374v24.911h-3.559V512.446ZM430.6,266.721v17.971h28.469v60.5H430.6V455.507H516v85.408h-3.559V459.066H427.038V341.63h28.469v-53.38H427.038v-21.53a8.9,8.9,0,1,1,3.559,0ZM95.906,32.028a8.9,8.9,0,1,1,0-3.559h17.971V3.559H85.408V0h32.028V32.028ZM295.19,88.966a8.9,8.9,0,1,1,0-3.559h46.44V0H430.6V3.559H345.189V88.966ZM209.782,3.559A8.9,8.9,0,1,1,192.345,0h3.683A5.338,5.338,0,1,0,206.1,0H316.72V60.5H284.692V38.967a8.9,8.9,0,1,1,3.559,0V56.938h24.911V3.559H209.782Zm0,170.815a8.9,8.9,0,1,1,0-3.559h33.985l56.938-56.938H370.1V38.967a8.9,8.9,0,1,1,3.559,0v78.468H302.183l-56.938,56.938H209.782Zm50,160.317a8.9,8.9,0,1,1-3.559,0V198.555l56.209-56.209h86.137V38.967a8.9,8.9,0,1,1,3.559,0V145.9H313.891l-54.109,54.109Zm28.469,56.938a8.9,8.9,0,1,1-3.559,0V214.569l43.754-43.754h205.53a8.9,8.9,0,0,1,6.939-6.939v3.683a5.338,5.338,0,0,0,0,10.071v3.683a8.9,8.9,0,0,1-6.939-6.939H329.9l-41.654,41.654ZM32.028,277.753a8.9,8.9,0,1,1-3.559,0v-6.245L113.877,186.1V85.408h56.938V0h3.559V88.966H117.435v98.592L32.028,272.966ZM88.966,95.906v77.418L3.559,258.732V370.1H50a8.9,8.9,0,1,1,0,3.559H0V257.273l85.408-85.408V95.906a8.9,8.9,0,1,1,3.559,0ZM60.5,124.375v34.715L0,219.586v-5.018L56.938,157.63V124.375a8.9,8.9,0,1,1,3.559,0ZM21.53,56.938a8.9,8.9,0,1,1,0,3.559H16.743L0,77.24v-5l15.284-15.3ZM494.474,88.966a8.9,8.9,0,1,1,0-3.559H527.73l13.185-13.185V77.24L529.189,88.966ZM466.005,373.658a8.9,8.9,0,1,1,0-3.559h46.44V243.038l28.469-28.469v5.018L516,244.5V373.658ZM95.906,430.6a8.9,8.9,0,1,1,0-3.559h17.971V386.843L72.223,345.189H38.967a8.9,8.9,0,1,1,0-3.559H73.682l43.754,43.754V430.6H95.906ZM363.16,455.507a8.9,8.9,0,1,1,0,3.559H170.815V358.356L100.71,288.251H67.436a8.9,8.9,0,1,1,0-3.559h34.7l72.241,72.241v98.575H363.16ZM95.906,459.066a8.9,8.9,0,1,1,0-3.559h46.44v-82.9L86.457,316.72H38.967a8.9,8.9,0,1,1,0-3.559H87.916L145.9,371.149v87.916h-50ZM60.5,70.817v2.865L16.743,117.435H0v-3.559H15.284L56.938,72.223V0H60.5ZM3.559,533.975a8.9,8.9,0,0,1,6.939,6.939H6.815A5.338,5.338,0,0,0,0,537.659V455.507H32.028v85.408H28.469V459.066H3.559ZM60.5,428.817v112.1H56.938V430.6H0v-3.559H60.5ZM30.249,32.028H0V28.469H28.469V0h3.559V32.028ZM516,28.469h24.911v3.559H512.446V0H516ZM459.066,514.225v26.69h-3.559V516H430.6v24.911h-3.559V512.446h32.028ZM0,163.876a8.932,8.932,0,0,1,10.676,8.719A8.9,8.9,0,0,1,0,181.313V177.63a5.338,5.338,0,1,0,0-10.071Zm142.346,320.1H145.9v56.938h-3.559Zm67.436,56.938H206.1a5.338,5.338,0,0,0-10.071,0h-3.683a8.9,8.9,0,0,1,17.437,0ZM10.5,0A8.932,8.932,0,0,1,0,10.5V6.815A5.338,5.338,0,0,0,6.815,0ZM533.975,0h3.683a5.338,5.338,0,0,0,3.256,6.815V10.5A8.9,8.9,0,0,1,533.975,0Zm6.939,533.975v3.683a5.338,5.338,0,0,0-3.256,3.256h-3.683a8.9,8.9,0,0,1,6.939-6.939ZM172.594,177.932a5.338,5.338,0,1,0-5.338-5.338,5.338,5.338,0,0,0,5.338,5.338Zm0-28.469a5.338,5.338,0,1,0-5.338-5.338,5.338,5.338,0,0,0,5.338,5.338Zm28.469,28.469a5.338,5.338,0,1,0-5.338-5.338,5.338,5.338,0,0,0,5.338,5.338ZM229.533,206.4a5.338,5.338,0,1,0-5.338-5.338A5.338,5.338,0,0,0,229.533,206.4Zm0,28.469a5.338,5.338,0,1,0-5.338-5.338A5.338,5.338,0,0,0,229.533,234.871Zm-85.408,56.938a5.338,5.338,0,1,0-5.338-5.338A5.338,5.338,0,0,0,144.125,291.809Zm28.469,28.469a5.338,5.338,0,1,0-5.338-5.338,5.338,5.338,0,0,0,5.338,5.338Zm56.938,85.408a5.338,5.338,0,1,0-5.338-5.338A5.338,5.338,0,0,0,229.533,405.686Zm-28.469,28.469a5.338,5.338,0,1,0-5.338-5.338A5.338,5.338,0,0,0,201.064,434.155ZM258,405.686a5.338,5.338,0,1,0-5.338-5.338A5.338,5.338,0,0,0,258,405.686Zm0-56.938a5.338,5.338,0,1,0-5.338-5.338A5.338,5.338,0,0,0,258,348.748Zm28.469,56.938a5.338,5.338,0,1,0-5.338-5.338A5.338,5.338,0,0,0,286.471,405.686Zm56.938,28.469a5.338,5.338,0,1,0-5.338-5.338A5.338,5.338,0,0,0,343.41,434.155Zm0-28.469a5.338,5.338,0,1,0-5.338-5.338A5.338,5.338,0,0,0,343.41,405.686ZM314.94,291.809a5.338,5.338,0,1,0-5.338-5.338A5.338,5.338,0,0,0,314.94,291.809Zm28.469,0a5.338,5.338,0,1,0-5.338-5.338A5.338,5.338,0,0,0,343.41,291.809Zm28.469,170.815a5.338,5.338,0,1,0-5.338-5.338,5.338,5.338,0,0,0,5.338,5.338Zm0,28.469a5.338,5.338,0,1,0-5.338-5.338,5.338,5.338,0,0,0,5.338,5.338Zm28.469,28.469a5.338,5.338,0,1,0-5.338-5.338A5.338,5.338,0,0,0,400.348,519.563ZM428.817,263.34A5.338,5.338,0,1,0,423.479,258,5.338,5.338,0,0,0,428.817,263.34Zm0,56.938a5.338,5.338,0,1,0-5.338-5.338A5.338,5.338,0,0,0,428.817,320.278Zm28.469-56.938A5.338,5.338,0,1,0,451.948,258,5.338,5.338,0,0,0,457.286,263.34Zm28.469-28.469a5.338,5.338,0,1,0-5.338-5.338A5.338,5.338,0,0,0,485.756,234.871Zm-170.815,0a5.338,5.338,0,1,0-5.338-5.338A5.338,5.338,0,0,0,314.94,234.871Zm0,28.469A5.338,5.338,0,1,0,309.6,258,5.338,5.338,0,0,0,314.94,263.34ZM343.41,206.4a5.338,5.338,0,1,0-5.338-5.338A5.338,5.338,0,0,0,343.41,206.4Zm170.815,0a5.338,5.338,0,1,0-5.338-5.338A5.338,5.338,0,0,0,514.225,206.4ZM485.756,92.525a5.338,5.338,0,1,0-5.338-5.338A5.338,5.338,0,0,0,485.756,92.525Zm28.469-28.469a5.338,5.338,0,1,0-5.338-5.338A5.338,5.338,0,0,0,514.225,64.056Zm-56.938,0a5.338,5.338,0,1,0-5.338-5.338A5.338,5.338,0,0,0,457.286,64.056Zm0-28.469a5.338,5.338,0,1,0-5.338-5.338A5.338,5.338,0,0,0,457.286,35.586Zm-28.469,0a5.338,5.338,0,1,0-5.338-5.338A5.338,5.338,0,0,0,428.817,35.586Zm-28.469,0a5.338,5.338,0,1,0-5.338-5.338A5.338,5.338,0,0,0,400.348,35.586Zm-28.469,0a5.338,5.338,0,1,0-5.338-5.338,5.338,5.338,0,0,0,5.338,5.338ZM87.187,64.056a5.338,5.338,0,1,0-5.338-5.338A5.338,5.338,0,0,0,87.187,64.056Zm-56.938,0a5.338,5.338,0,1,0-5.338-5.338A5.338,5.338,0,0,0,30.249,64.056ZM87.187,92.525a5.338,5.338,0,1,0-5.338-5.338A5.338,5.338,0,0,0,87.187,92.525ZM58.718,120.994a5.338,5.338,0,1,0-5.338-5.338A5.338,5.338,0,0,0,58.718,120.994ZM87.187,35.586a5.338,5.338,0,1,0-5.338-5.338A5.338,5.338,0,0,0,87.187,35.586Zm0,427.038a5.338,5.338,0,1,0-5.338-5.338A5.338,5.338,0,0,0,87.187,462.624Zm28.469,56.938a5.338,5.338,0,1,0-5.338-5.338A5.338,5.338,0,0,0,115.656,519.563ZM87.187,405.686a5.338,5.338,0,1,0-5.338-5.338A5.338,5.338,0,0,0,87.187,405.686Zm0,28.469a5.338,5.338,0,1,0-5.338-5.338A5.338,5.338,0,0,0,87.187,434.155ZM58.718,377.217a5.338,5.338,0,1,0-5.338-5.338,5.338,5.338,0,0,0,5.338,5.338ZM201.064,64.056a5.338,5.338,0,1,0-5.338-5.338A5.338,5.338,0,0,0,201.064,64.056Zm28.469,0a5.338,5.338,0,1,0-5.338-5.338A5.338,5.338,0,0,0,229.533,64.056ZM201.064,35.586a5.338,5.338,0,1,0-5.338-5.338A5.338,5.338,0,0,0,201.064,35.586ZM258,120.994a5.338,5.338,0,1,0-5.338-5.338A5.338,5.338,0,0,0,258,120.994Zm28.469-28.469a5.338,5.338,0,1,0-5.338-5.338A5.338,5.338,0,0,0,286.471,92.525Zm0-56.938a5.338,5.338,0,1,0-5.338-5.338A5.338,5.338,0,0,0,286.471,35.586ZM485.756,348.748a5.338,5.338,0,1,0-5.338-5.338A5.338,5.338,0,0,0,485.756,348.748Zm-28.469,28.469a5.338,5.338,0,1,0-5.338-5.338,5.338,5.338,0,0,0,5.338,5.338Zm0,28.469a5.338,5.338,0,1,0-5.338-5.338A5.338,5.338,0,0,0,457.286,405.686Zm0,28.469a5.338,5.338,0,1,0-5.338-5.338A5.338,5.338,0,0,0,457.286,434.155ZM30.249,320.278a5.338,5.338,0,1,0-5.338-5.338A5.338,5.338,0,0,0,30.249,320.278Zm0,28.469a5.338,5.338,0,1,0-5.338-5.338A5.338,5.338,0,0,0,30.249,348.748Zm0-56.938a5.338,5.338,0,1,0-5.338-5.338A5.338,5.338,0,0,0,30.249,291.809Zm28.469,0a5.338,5.338,0,1,0-5.338-5.338A5.338,5.338,0,0,0,58.718,291.809ZM30.249,149.463a5.338,5.338,0,1,0-5.338-5.338A5.338,5.338,0,0,0,30.249,149.463ZM87.187,263.34A5.338,5.338,0,1,0,81.849,258,5.338,5.338,0,0,0,87.187,263.34Zm28.469-28.469a5.338,5.338,0,1,0-5.338-5.338A5.338,5.338,0,0,0,115.656,234.871Z" fill="rgba(255,255,255,0.08)"/></svg>