<svg xmlns="http://www.w3.org/2000/svg" width="2302" height="1875" viewBox="0 0 2302 1875"><g transform="translate(-388.232 -3712)"><g transform="translate(2690.312 3720) rotate(90)"><ellipse cx="410" cy="292" rx="410" ry="292" transform="translate(223 173.08)" fill="#f8f8f8"/><ellipse cx="411" cy="290.5" rx="411" ry="290.5" transform="translate(599 0.08)" fill="#f8f8f8"/><ellipse cx="411" cy="291.5" rx="411" ry="291.5" transform="translate(675 25.08)" fill="#f8f8f8"/><path d="M282.18,0C438.029,0,564.36,92.671,564.36,206.988S438.029,413.975,282.18,413.975,0,321.3,0,206.988,126.337,0,282.18,0Z" transform="translate(1087.576 40.338)" fill="#f8f8f8"/><ellipse cx="411" cy="292" rx="411" ry="292" transform="translate(1032 147.08)" fill="#f8f8f8"/><ellipse cx="411.5" cy="291" rx="411.5" ry="291" transform="translate(977 471.08)" fill="#f8f8f8"/><ellipse cx="412.5" cy="292" rx="412.5" ry="292" transform="translate(46 358.08)" fill="#f8f8f8"/><ellipse cx="411" cy="291" rx="411" ry="291" transform="translate(564 411.08)" fill="#f8f8f8"/><ellipse cx="412" cy="291.5" rx="412" ry="291.5" transform="translate(496 694.08)" fill="#f8f8f8"/><ellipse cx="411" cy="292" rx="411" ry="292" transform="translate(0 632.08)" fill="#f8f8f8"/><ellipse cx="412" cy="290.5" rx="412" ry="290.5" transform="translate(83 850.08)" fill="#f8f8f8"/><ellipse cx="412" cy="291" rx="412" ry="291" transform="translate(739 864.08)" fill="#f8f8f8"/><ellipse cx="412" cy="291.5" rx="412" ry="291.5" transform="translate(1043 1029.08)" fill="#f8f8f8"/><ellipse cx="411.5" cy="290.5" rx="411.5" ry="290.5" transform="translate(907 1321.08)" fill="#f8f8f8"/><ellipse cx="412" cy="291.5" rx="412" ry="291.5" transform="translate(83 1029.08)" fill="#f8f8f8"/><ellipse cx="410.5" cy="290.5" rx="410.5" ry="290.5" transform="translate(331 1250.08)" fill="#f8f8f8"/><ellipse cx="412" cy="292" rx="412" ry="292" transform="translate(153 1386.08)" fill="#f8f8f8"/><ellipse cx="412" cy="292" rx="412" ry="292" transform="translate(1010 732.08)" fill="#f8f8f8"/></g><g transform="translate(2546.089 3712) rotate(90)"><ellipse cx="411" cy="292" rx="411" ry="292" transform="translate(223 1400.857)" fill="#f8f8f8"/><ellipse cx="411.5" cy="290.5" rx="411.5" ry="290.5" transform="translate(601 1576.857)" fill="#f8f8f8"/><ellipse cx="412" cy="291.5" rx="412" ry="291.5" transform="translate(675 1549.857)" fill="#f8f8f8"/><path d="M282.18,413.975c155.847,0,282.18-92.671,282.18-206.988S438.029,0,282.18,0,0,92.671,0,206.988,126.337,413.975,282.18,413.975Z" transform="translate(1088.716 1704.491)" fill="#f8f8f8"/><ellipse cx="412" cy="292" rx="412" ry="292" transform="translate(1032 1426.857)" fill="#f8f8f8"/><ellipse cx="412.5" cy="291" rx="412.5" ry="291" transform="translate(977 1039.857)" fill="#f8f8f8"/><ellipse cx="411.5" cy="292" rx="411.5" ry="292" transform="translate(48 1164.857)" fill="#f8f8f8"/><ellipse cx="411.5" cy="290" rx="411.5" ry="290" transform="translate(566 1106.857)" fill="#f8f8f8"/><ellipse cx="412.5" cy="291.5" rx="412.5" ry="291.5" transform="translate(496 783.857)" fill="#f8f8f8"/><ellipse cx="412" cy="291.5" rx="412" ry="291.5" transform="translate(0 853.857)" fill="#f8f8f8"/><ellipse cx="410.5" cy="291.5" rx="410.5" ry="291.5" transform="translate(87 608.857)" fill="#f8f8f8"/><ellipse cx="412" cy="291" rx="412" ry="291" transform="translate(739 594.857)" fill="#f8f8f8"/><ellipse cx="411.5" cy="291.5" rx="411.5" ry="291.5" transform="translate(1045 404.857)" fill="#f8f8f8"/><ellipse cx="412" cy="291.5" rx="412" ry="291.5" transform="translate(908 64.857)" fill="#f8f8f8"/><ellipse cx="410.5" cy="291.5" rx="410.5" ry="291.5" transform="translate(87 404.857)" fill="#f8f8f8"/><ellipse cx="410" cy="291" rx="410" ry="291" transform="translate(332 136.857)" fill="#f8f8f8"/><ellipse cx="412" cy="290.5" rx="412" ry="290.5" transform="translate(153 -0.143)" fill="#f8f8f8"/><ellipse cx="412.5" cy="291.5" rx="412.5" ry="291.5" transform="translate(1010 742.857)" fill="#f8f8f8"/></g></g></svg>