<svg xmlns="http://www.w3.org/2000/svg" width="1676" height="967" viewBox="0 0 1676 967"><g transform="translate(-388.232 -3712)"><g transform="translate(2064.464 3715.715) rotate(90)"><ellipse cx="211.5" cy="212.5" rx="211.5" ry="212.5" transform="translate(115.285 126.232)" fill="#f8f8f8"/><ellipse cx="212" cy="211.5" rx="212" ry="211.5" transform="translate(309.285 0.232)" fill="#f8f8f8"/><ellipse cx="212" cy="212.5" rx="212" ry="212.5" transform="translate(348.285 18.232)" fill="#f8f8f8"/><path d="M145.5,0C225.86,0,291,67.468,291,150.695S225.86,301.389,145.5,301.389,0,233.921,0,150.695,65.143,0,145.5,0Z" transform="translate(561.195 29.6)" fill="#f8f8f8"/><ellipse cx="212" cy="212.5" rx="212" ry="212.5" transform="translate(532.285 107.232)" fill="#f8f8f8"/><circle cx="212" cy="212" r="212" transform="translate(504.285 343.232)" fill="#f8f8f8"/><circle cx="212.5" cy="212.5" r="212.5" transform="translate(24.285 261.232)" fill="#f8f8f8"/><circle cx="212" cy="212" r="212" transform="translate(291.285 299.232)" fill="#f8f8f8"/><circle cx="212.5" cy="212.5" r="212.5" transform="translate(256.285 505.232)" fill="#f8f8f8"/><ellipse cx="212" cy="212.5" rx="212" ry="212.5" transform="translate(0.285 460.232)" fill="#f8f8f8"/><ellipse cx="212.5" cy="211.5" rx="212.5" ry="211.5" transform="translate(43.285 619.232)" fill="#f8f8f8"/><ellipse cx="212.5" cy="212" rx="212.5" ry="212" transform="translate(381.285 629.232)" fill="#f8f8f8"/><circle cx="212.5" cy="212.5" r="212.5" transform="translate(538.285 749.232)" fill="#f8f8f8"/><ellipse cx="212" cy="211.5" rx="212" ry="211.5" transform="translate(468.285 962.232)" fill="#f8f8f8"/><circle cx="212.5" cy="212.5" r="212.5" transform="translate(43.285 749.232)" fill="#f8f8f8"/><circle cx="211.5" cy="211.5" r="211.5" transform="translate(171.285 910.232)" fill="#f8f8f8"/><circle cx="212.5" cy="212.5" r="212.5" transform="translate(79.285 1009.232)" fill="#f8f8f8"/><circle cx="212.5" cy="212.5" r="212.5" transform="translate(521.285 533.232)" fill="#f8f8f8"/></g><g transform="translate(1959.22 3712) rotate(90)"><ellipse cx="212" cy="212.5" rx="212" ry="212.5" transform="translate(115 1019.988)" fill="#f8f8f8"/><ellipse cx="212" cy="211.5" rx="212" ry="211.5" transform="translate(310 1147.988)" fill="#f8f8f8"/><circle cx="212.5" cy="212.5" r="212.5" transform="translate(348 1127.988)" fill="#f8f8f8"/><path d="M145.5,301.389c80.359,0,145.5-67.468,145.5-150.695S225.86,0,145.5,0,0,67.468,0,150.695,65.143,301.389,145.5,301.389Z" transform="translate(561.373 1240.921)" fill="#f8f8f8"/><circle cx="212.5" cy="212.5" r="212.5" transform="translate(532 1038.988)" fill="#f8f8f8"/><ellipse cx="212.5" cy="212" rx="212.5" ry="212" transform="translate(504 756.988)" fill="#f8f8f8"/><ellipse cx="212" cy="212.5" rx="212" ry="212.5" transform="translate(25 847.988)" fill="#f8f8f8"/><ellipse cx="212" cy="211" rx="212" ry="211" transform="translate(292 805.988)" fill="#f8f8f8"/><ellipse cx="212.5" cy="212" rx="212.5" ry="212" transform="translate(256 570.988)" fill="#f8f8f8"/><ellipse cx="212.5" cy="212" rx="212.5" ry="212" transform="translate(0 621.988)" fill="#f8f8f8"/><ellipse cx="211.5" cy="212.5" rx="211.5" ry="212.5" transform="translate(45 442.988)" fill="#f8f8f8"/><ellipse cx="212.5" cy="212" rx="212.5" ry="212" transform="translate(381 432.988)" fill="#f8f8f8"/><circle cx="212" cy="212" r="212" transform="translate(539 294.988)" fill="#f8f8f8"/><circle cx="212.5" cy="212.5" r="212.5" transform="translate(468 46.988)" fill="#f8f8f8"/><ellipse cx="211.5" cy="212" rx="211.5" ry="212" transform="translate(45 294.988)" fill="#f8f8f8"/><circle cx="211.5" cy="211.5" r="211.5" transform="translate(171 99.988)" fill="#f8f8f8"/><ellipse cx="212.5" cy="211.5" rx="212.5" ry="211.5" transform="translate(79 -0.012)" fill="#f8f8f8"/><ellipse cx="212.5" cy="212" rx="212.5" ry="212" transform="translate(521 540.988)" fill="#f8f8f8"/></g></g></svg>