<svg xmlns="http://www.w3.org/2000/svg" width="322.744" height="468.413" viewBox="0 0 322.744 468.413"><g transform="matrix(0.574, -0.819, 0.819, 0.574, -105.63, 281.32)"><g transform="matrix(0.985, 0.174, -0.174, 0.985, 57.515, 0)"><path d="M91.793,0,38.877,13.234,0,90.989,75.356,72.147Z" transform="translate(29.765 112.781)" fill="#7f6d67"/><path d="M91.009,0,18.843,16.524,0,91.88,77.755,53Z" transform="translate(127.448 209.573)" fill="#635550"/><path d="M102.1,88.651a215.246,215.246,0,0,1-41.033,13.859L0,41.444C1.372,38.15,3.431,22.368,13.449,0L43.777,2.882l58.871,58.871Z" transform="translate(89.28 139.289)" fill="#ff3636"/><path d="M71.5,57.775A215.246,215.246,0,0,1,30.465,71.634L0,41.169,41.169,0,72.046,30.877Z" transform="translate(119.882 170.165)" fill="#ce2700"/><path d="M162.892,175.38A243.1,243.1,0,0,1,88.651,227.94L0,139.289C10.567,115.823,28.269,89.611,53.108,65.6,135.583-13.861,215.314,2.745,228.489,0,225.881,13.037,242.211,93.042,162.892,175.38Z" transform="translate(102.729 0)" fill="#ede9e8"/><path d="M118.293,175.38A243.1,243.1,0,0,1,44.051,227.94L0,183.889,183.889,0C181.282,13.037,197.612,93.042,118.293,175.38Z" transform="translate(147.329 0)" fill="#dfd7d5"/><path d="M119.2,49.661C111.512,57.345,1.1,128.512,0,129.06,24.564,84.186,70.205,16.314,78.028,8.491a29.2,29.2,0,0,1,41.169,0,1.749,1.749,0,0,1,.549.824A28.832,28.832,0,0,1,119.2,49.661Z" transform="translate(0 202.157)" fill="#ffe477"/><path d="M66.213,66.213a38.815,38.815,0,1,1,0-54.892A38.929,38.929,0,0,1,66.213,66.213Z" transform="translate(190.9 62.784)" fill="#7f6d67"/><g transform="translate(167.916 39.795)"><rect width="19.407" height="19.407" transform="translate(27.446 109.781) rotate(135)" fill="#bfbfbf"/><rect width="19.407" height="19.407" transform="translate(123.505 13.723) rotate(135)" fill="#bfbfbf"/></g><g transform="translate(174.774 46.657)"><rect width="9.704" height="19.407" transform="translate(102.923 20.584) rotate(-135)" fill="#acacac"/><rect width="9.704" height="19.407" transform="translate(6.861 116.649) rotate(-135)" fill="#acacac"/></g><path d="M0,54.892,54.892,0A38.815,38.815,0,0,1,0,54.892Z" transform="translate(202.221 74.105)" fill="#635550"/><path d="M19.361,38.72A19.248,19.248,0,0,1,0,19.36,19.248,19.248,0,0,1,19.361,0,19.361,19.361,0,0,1,33.084,33.084,19.258,19.258,0,0,1,19.361,38.72Z" transform="translate(210.306 82.191)" fill="#00c7ce"/><path d="M13.724,33.084a19.256,19.256,0,0,0,13.723-5.637A19.431,19.431,0,0,0,27.446,0h0L0,27.446A19.258,19.258,0,0,0,13.724,33.084Z" transform="translate(215.944 87.827)" fill="#00969b"/><path d="M119.2,40.346C111.512,48.03,1.1,119.2,0,119.746L119.746,0A28.832,28.832,0,0,1,119.2,40.346Z" transform="translate(0 211.472)" fill="#fdbf00"/></g></g></svg>