<svg xmlns="http://www.w3.org/2000/svg" xmlns:xlink="http://www.w3.org/1999/xlink" width="1233.148" height="611.361" viewBox="0 0 1233.148 611.361"><defs><clipPath id="a"><rect width="657" height="244" transform="translate(682.508 377.553)" fill="none"/></clipPath><clipPath id="b"><path d="M562.3-472.571H513.383s-16.041,16.807-13.833,41.54a68.106,68.106,0,0,1,8.139-7.8.907.907,0,0,1,1.433.876c-.867,5.587-.123,22.345,28.72,50.819,28.844-28.473,29.585-45.232,28.72-50.819a.907.907,0,0,1,1.433-.876,68.165,68.165,0,0,1,8.14,7.8c2.207-24.733-13.833-41.54-13.833-41.54Z"/></clipPath><linearGradient id="c" x1="-6.485" y1="5.531" x2="-6.483" y2="5.531" gradientUnits="objectBoundingBox"><stop offset="0" stop-color="#f5b655"/><stop offset="0.006" stop-color="#f5b655"/><stop offset="1" stop-color="#ee502d"/></linearGradient></defs><g transform="translate(-321 -1420.639)"><g transform="translate(-90.508 1410.447)" clip-path="url(#a)"><path d="M386.7-175.539l-389.217.346v334.4H1478.138V-172.513H1042.681a97.658,97.658,0,0,0-97.575-93.846,97.286,97.286,0,0,0-39.709,8.441,57.739,57.739,0,0,0-55.993-43.79l-.065,0c-.037-1.044-.11-2.078-.238-3.1a33.976,33.976,0,0,0,.3-4.42,34.857,34.857,0,0,0-34.856-34.858,34.719,34.719,0,0,0-12.481,2.341,34.864,34.864,0,0,0-24.032-28.1L761-414.8H733.394l-16.732,44.155a29.8,29.8,0,0,0-6.693-.779A29.923,29.923,0,0,0,680.045-341.5a29,29,0,0,0,.365,4.356c-.05.324-.111.645-.149.972a44.315,44.315,0,0,0-15.448-2.812,44.56,44.56,0,0,0-44.558,44.455,28.757,28.757,0,0,0-4.709-.418,28.572,28.572,0,0,0-25.937,16.614,97.192,97.192,0,0,0-53.682-16.086,97.674,97.674,0,0,0-97.673,97.671c0,1.431.05,2.851.116,4.264-.022.464-.02.934-.037,1.4a28.532,28.532,0,0,0-23.961-13.045c-15.789,0-29.99,15.564-29.99,31.355" transform="translate(297.28 792.613)" fill="#fff"/></g><g transform="translate(414.896 2211.664)"><path d="M698.565-341.927a7.354,7.354,0,0,0-7.341-6.909,7.361,7.361,0,0,0-6.905,4.813,7.41,7.41,0,0,0-5.5-2.437,7.433,7.433,0,0,0-7.432,7.433,7.432,7.432,0,0,0,3.9,6.539,7.321,7.321,0,0,0-1.811,4.831,7.354,7.354,0,0,0,7.356,7.356,7.309,7.309,0,0,0,3.833-1.077l.031.019a5.319,5.319,0,0,0-.107,1.059,5.331,5.331,0,0,0,5.331,5.331,5.33,5.33,0,0,0,5.329-5.331,5.278,5.278,0,0,0-.155-1.248,10.406,10.406,0,0,0,2.871.4,10.4,10.4,0,0,0,10.4-10.4,10.4,10.4,0,0,0-9.792-10.381" fill="#fff"/><path d="M441.274-388.316a7.355,7.355,0,0,0-7.341-6.909,7.359,7.359,0,0,0-6.905,4.813,7.416,7.416,0,0,0-5.5-2.439,7.432,7.432,0,0,0-7.432,7.435,7.43,7.43,0,0,0,3.895,6.537,7.329,7.329,0,0,0-1.811,4.832,7.355,7.355,0,0,0,7.356,7.355,7.325,7.325,0,0,0,3.835-1.076l.029.017a5.319,5.319,0,0,0-.107,1.059,5.332,5.332,0,0,0,5.329,5.332,5.332,5.332,0,0,0,5.331-5.332,5.348,5.348,0,0,0-.153-1.248,10.4,10.4,0,0,0,2.869.405,10.4,10.4,0,0,0,10.4-10.4,10.4,10.4,0,0,0-9.791-10.38" fill="#fff"/><path d="M732.488-322.781a3.289,3.289,0,0,0-3.283-3.089,3.29,3.29,0,0,0-3.087,2.152,3.316,3.316,0,0,0-2.463-1.089,3.323,3.323,0,0,0-3.323,3.324,3.32,3.32,0,0,0,1.743,2.923,3.278,3.278,0,0,0-.811,2.16,3.289,3.289,0,0,0,3.289,3.289,3.275,3.275,0,0,0,1.715-.481l.013.008a2.31,2.31,0,0,0-.047.473,2.384,2.384,0,0,0,2.383,2.384A2.384,2.384,0,0,0,731-313.111a2.32,2.32,0,0,0-.069-.557,4.688,4.688,0,0,0,1.284.18,4.65,4.65,0,0,0,4.649-4.649,4.65,4.65,0,0,0-4.377-4.643" fill="#fff"/><path d="M487.576-406.7a4.344,4.344,0,0,0-4.335-4.081,4.348,4.348,0,0,0-4.079,2.844,4.373,4.373,0,0,0-3.249-1.44,4.388,4.388,0,0,0-4.389,4.389,4.383,4.383,0,0,0,2.3,3.86,4.337,4.337,0,0,0-1.071,2.855,4.345,4.345,0,0,0,4.345,4.344,4.318,4.318,0,0,0,2.264-.637l.017.011a3.13,3.13,0,0,0-.063.627,3.148,3.148,0,0,0,3.148,3.147,3.147,3.147,0,0,0,3.147-3.147,3.131,3.131,0,0,0-.089-.737,6.166,6.166,0,0,0,1.695.239,6.142,6.142,0,0,0,6.141-6.143,6.14,6.14,0,0,0-5.783-6.129" fill="#fff"/><path d="M409.712-353.318a3.289,3.289,0,0,0-3.283-3.089,3.29,3.29,0,0,0-3.088,2.153,3.313,3.313,0,0,0-2.46-1.091,3.323,3.323,0,0,0-3.324,3.323A3.323,3.323,0,0,0,399.3-349.1a3.27,3.27,0,0,0-.811,2.16,3.29,3.29,0,0,0,3.289,3.289,3.276,3.276,0,0,0,1.715-.483l.013.008a2.32,2.32,0,0,0-.048.475,2.384,2.384,0,0,0,2.384,2.383,2.383,2.383,0,0,0,2.383-2.383,2.4,2.4,0,0,0-.068-.559,4.623,4.623,0,0,0,1.283.18,4.65,4.65,0,0,0,4.651-4.651,4.651,4.651,0,0,0-4.379-4.641" fill="#fff"/><path d="M111.132-671.052A38.281,38.281,0,0,0,91.5-665.664a38.464,38.464,0,0,0-38.367-35.8A38.352,38.352,0,0,0,39.083-698.8a44.967,44.967,0,0,0-43.07-32.064,44.954,44.954,0,0,0-44.954,44.955c0,.636.021,1.265.047,1.893h-.047A44.955,44.955,0,0,0-93.9-639.068a44.955,44.955,0,0,0,44.955,44.955,45.413,45.413,0,0,0,4.591-.232H106.939a38.532,38.532,0,0,0,4.193.232A38.469,38.469,0,0,0,149.6-632.582a38.469,38.469,0,0,0-38.469-38.469" fill="#fff"/><path d="M968.538-502.717a31.878,31.878,0,0,1,16.348,4.487,32.025,32.025,0,0,1,31.945-29.808,31.935,31.935,0,0,1,11.7,2.213,37.445,37.445,0,0,1,35.863-26.7,37.431,37.431,0,0,1,37.431,37.432c0,.528-.019,1.053-.04,1.576h.04a37.432,37.432,0,0,1,37.431,37.432,37.432,37.432,0,0,1-37.431,37.432,37.7,37.7,0,0,1-3.823-.195H972.03a32.147,32.147,0,0,1-3.492.195,32.032,32.032,0,0,1-32.031-32.032,32.032,32.032,0,0,1,32.031-32.032" fill="#fff"/><path d="M19.218-484.927a17.471,17.471,0,0,1,8.951,2.456,17.536,17.536,0,0,1,17.492-16.321,17.47,17.47,0,0,1,6.405,1.212A20.5,20.5,0,0,1,71.7-512.2,20.5,20.5,0,0,1,92.2-491.7c0,.288-.01.576-.022.863H92.2a20.5,20.5,0,0,1,20.5,20.495,20.5,20.5,0,0,1-20.5,20.5,20.882,20.882,0,0,1-2.093-.105H21.13a17.748,17.748,0,0,1-1.912.105A17.538,17.538,0,0,1,1.679-467.388a17.538,17.538,0,0,1,17.539-17.539" fill="#fff"/><path d="M865.113-756.63a21.982,21.982,0,0,0-11.269,3.092,22.079,22.079,0,0,0-22.024-20.549,21.958,21.958,0,0,0-7.2,1.231,25.814,25.814,0,0,0-24.653-18.168c-.872,0-1.728.057-2.576.141a25.8,25.8,0,0,0-22.979,17.98,21.984,21.984,0,0,0-7.232-1.241A22.078,22.078,0,0,0,745.161-753.6a21.974,21.974,0,0,0-11.269-3.093,22.082,22.082,0,0,0-22.083,22.081,22.083,22.083,0,0,0,22.083,22.083,22.4,22.4,0,0,0,2.407-.133h33.915a25.87,25.87,0,0,0,3.017.191q1.334,0,2.635-.132h48.424c.495.028.984.075,1.485.075s.989-.047,1.484-.075H862.7a22.462,22.462,0,0,0,2.408.132,22.081,22.081,0,0,0,22.081-22.081,22.081,22.081,0,0,0-22.081-22.081" fill="#fff"/><g clip-path="url(#b)"><path d="M562.3-472.571H513.383s-16.041,16.807-13.833,41.54a68.106,68.106,0,0,1,8.139-7.8.907.907,0,0,1,1.433.876c-.867,5.587-.123,22.345,28.72,50.819,28.844-28.473,29.585-45.232,28.72-50.819a.907.907,0,0,1,1.433-.876,68.165,68.165,0,0,1,8.14,7.8c2.207-24.733-13.833-41.54-13.833-41.54" fill="url(#c)"/></g><path d="M537.7-491.637v.015s-31.324,24.863,0,67.684v-.015c31.325-42.823,0-67.684,0-67.684" fill="#fbe680"/><path d="M537.7-475.744v.008s-18.72,14.859,0,40.451v-.009c18.72-25.592,0-40.449,0-40.449" fill="#fff"/><path d="M502.553-483.8l3.556,6.863a8.808,8.808,0,0,0,7.821,4.755h47.192a8.81,8.81,0,0,0,7.821-4.755L572.5-483.8H502.553" fill="#909190"/><path d="M502.553-483.8l-1.184.613,3.556,6.863a10.142,10.142,0,0,0,9.005,5.475h47.192a10.143,10.143,0,0,0,9.005-5.475l4.564-8.809H500.36l1.009,1.947,1.184-.613v1.333h67.753l-2.547,4.916a7.477,7.477,0,0,1-6.637,4.035H513.931a7.478,7.478,0,0,1-6.639-4.035l-3.556-6.863-1.183.613v0" fill="#3c3c3d"/><path d="M492.473-496.807l4.581,8.836a11.345,11.345,0,0,0,10.076,6.127h60.791A11.345,11.345,0,0,0,578-487.971l4.583-8.836H492.474" fill="#464648"/><path d="M492.473-496.807l-1.183.613,4.58,8.837a12.68,12.68,0,0,0,11.26,6.845h60.791a12.681,12.681,0,0,0,11.26-6.845l5.591-10.784h-94.49l1.009,1.947,1.183-.613v1.333h87.913l-3.573,6.889a10.011,10.011,0,0,1-8.892,5.407H507.131a10.013,10.013,0,0,1-8.892-5.407l-4.581-8.837-1.184.615v0" fill="#3c3c3d"/><path d="M580.975-564.511s76.677,26.337,71.8,103.394c0,0-64.556-65.77-99.694-51.7l27.895-51.7" fill="#e12125"/><path d="M494.708-564.511s-76.677,26.337-71.8,103.394c0,0,64.557-65.77,99.694-51.7l-27.895-51.7" fill="#e12125"/><path d="M574.761-711.828a242.417,242.417,0,0,0-37.248-63.981l-.012.088-.012-.088a242.129,242.129,0,0,0-36.968,63.292,157.7,157.7,0,0,1,74.24.689" fill="#e12125"/><path d="M575.779-709.212l.009,0-1.027-2.619c-41.017-10.527-74.24-.689-74.24-.689l-1.3,3.308h.007c-33.9,87.771-18.529,183.048-13.079,209.946a9.294,9.294,0,0,0,9.119,7.436h84.472a9.3,9.3,0,0,0,9.119-7.436c5.449-26.9,20.821-122.178-13.077-209.947" fill="#fff"/><path d="M567.431-640.89A31.45,31.45,0,0,1,535.98-609.44a31.451,31.451,0,0,1-31.451-31.451,31.451,31.451,0,0,1,31.451-31.451,31.45,31.45,0,0,1,31.451,31.451" fill="#162e42"/><path d="M567.431-640.89H566.1a30.009,30.009,0,0,1-8.821,21.3,30.018,30.018,0,0,1-21.3,8.821,30.022,30.022,0,0,1-21.3-8.821,30.02,30.02,0,0,1-8.821-21.3,30.02,30.02,0,0,1,8.821-21.3,30.012,30.012,0,0,1,21.3-8.821,30.007,30.007,0,0,1,21.3,8.821,30.015,30.015,0,0,1,8.821,21.3h2.667a32.783,32.783,0,0,0-32.784-32.784A32.784,32.784,0,0,0,503.2-640.89a32.785,32.785,0,0,0,32.784,32.784,32.784,32.784,0,0,0,32.784-32.784h-1.333" fill="#3c3c3d"/><path d="M561.568-639.426A24.066,24.066,0,0,1,537.5-615.361a24.066,24.066,0,0,1-24.065-24.065A24.065,24.065,0,0,1,537.5-663.492a24.065,24.065,0,0,1,24.065,24.065" fill="#767779"/><path d="M561.568-639.426h-1.333a22.655,22.655,0,0,1-6.659,16.073,22.655,22.655,0,0,1-16.073,6.659,22.655,22.655,0,0,1-16.075-6.659,22.648,22.648,0,0,1-6.657-16.073,22.654,22.654,0,0,1,6.657-16.075,22.654,22.654,0,0,1,16.075-6.657,22.648,22.648,0,0,1,16.073,6.657,22.66,22.66,0,0,1,6.659,16.075H562.9a25.4,25.4,0,0,0-25.4-25.4,25.4,25.4,0,0,0-25.4,25.4,25.4,25.4,0,0,0,25.4,25.4,25.4,25.4,0,0,0,25.4-25.4h-1.333" fill="#3c3c3d"/><path d="M559.819-640.89a23.838,23.838,0,0,1-23.839,23.837,23.837,23.837,0,0,1-23.837-23.837,23.837,23.837,0,0,1,23.837-23.839,23.838,23.838,0,0,1,23.839,23.839" fill="#5ec9e8"/><path d="M559.819-640.89h-1.333a22.422,22.422,0,0,1-6.592,15.913,22.424,22.424,0,0,1-15.913,6.591,22.426,22.426,0,0,1-15.913-6.591,22.431,22.431,0,0,1-6.591-15.913,22.429,22.429,0,0,1,6.591-15.913A22.432,22.432,0,0,1,535.98-663.4a22.43,22.43,0,0,1,15.913,6.592,22.425,22.425,0,0,1,6.592,15.913h2.667a25.172,25.172,0,0,0-25.172-25.172,25.173,25.173,0,0,0-25.171,25.172A25.171,25.171,0,0,0,535.98-615.72a25.17,25.17,0,0,0,25.172-25.171h-1.333" fill="#3c3c3d"/><path d="M514.083-646.1a22.47,22.47,0,0,1,5.984-10.7A22.432,22.432,0,0,1,535.98-663.4h.147c.457,0,.912.02,1.364.051h.033l.028,0,.045,0h.012a22.3,22.3,0,0,1,11.339,4.064A24.967,24.967,0,0,0,537.5-662.03v1.333h0v-1.333a25.176,25.176,0,0,0-23.42,15.928" fill="#54b8d5"/><path d="M537.609-663.337h0m-.057,0-.028,0,.028,0m-.061,0c-.452-.031-.907-.047-1.364-.051.457,0,.912.02,1.364.051m-1.365-.051h0m-.073,0h0" fill="#373737"/><path d="M510.812-640.521v0m0-.064v0m0-.067c0-.024,0-.049,0-.073,0,.024,0,.049,0,.073m0-.077v0m0-.08v-.081h0v.081m25.311-25.253h0m-.069,0h0" fill="#182f42"/><path d="M515.825-630.866a22.4,22.4,0,0,1-2.349-10.024,22.429,22.429,0,0,1,6.591-15.913A22.432,22.432,0,0,1,535.98-663.4h0a22.432,22.432,0,0,0-15.913,6.592,22.47,22.47,0,0,0-5.984,10.7A25.176,25.176,0,0,1,537.5-662.03v2.667a22.424,22.424,0,0,0-15.913,6.591A22.427,22.427,0,0,0,515-636.86a22.474,22.474,0,0,0,.832,5.991l0,0m41.913-15.788A22.482,22.482,0,0,0,537.5-659.364v-2.667a24.966,24.966,0,0,1,11.445,2.757,22.3,22.3,0,0,0-11.339-4.064,22.421,22.421,0,0,1,14.284,6.533,22.481,22.481,0,0,1,5.848,10.148h0" fill="#59bfdc"/><path d="M513.344-629.932a25.068,25.068,0,0,1-2.532-10.589v0c0-.02,0-.041,0-.061v-.067c0-.024,0-.049,0-.073v-.084h0v-.081a25.173,25.173,0,0,1,25.171-25.172h.14a25.165,25.165,0,0,1,24.1,18.471l-2.483.936a22.481,22.481,0,0,0-5.848-10.148,22.421,22.421,0,0,0-14.284-6.533H537.6l-.045,0-.028,0h-.033c-.452-.031-.907-.047-1.364-.051h-.147a22.432,22.432,0,0,0-15.913,6.592,22.429,22.429,0,0,0-6.591,15.913,22.4,22.4,0,0,0,2.349,10.024l-2.481.935" fill="#3c3c3d"/><path d="M537.6-663.338l-.045,0,.045,0m-.073-.005h0m-1.4-.052h0m-.071,0h0" fill="#59bfdc"/><path d="M537.841-554.912c-25.695,58.485,0,109.046,0,109.046s25.695-50.561,0-109.046" fill="#e12125"/></g></g></svg>