<svg xmlns="http://www.w3.org/2000/svg" xmlns:xlink="http://www.w3.org/1999/xlink" width="268.519" height="268.519" viewBox="0 0 268.519 268.519"><defs><linearGradient id="a" x1="0.637" y1="0.874" x2="0.139" y2="0.198" gradientUnits="objectBoundingBox"><stop offset="0" stop-color="#5b9ec3"/><stop offset="1" stop-color="#055c9a"/></linearGradient></defs><g transform="translate(0)"><g transform="translate(0 0)"><path d="M263.3,213.516,233.53,193.669,207.067,176.03a11.722,11.722,0,0,0-15.741,2.556l-16.375,21.051a11.662,11.662,0,0,1-14.889,3.088c-11.111-6.181-24.25-12-53.24-41.027S71.976,119.568,65.8,108.457a11.661,11.661,0,0,1,3.088-14.888L89.934,77.194a11.723,11.723,0,0,0,2.556-15.741L75.392,35.8,55,5.221A11.722,11.722,0,0,0,39.221,1.67L15.707,15.777A28.729,28.729,0,0,0,2.661,32.661c-6.43,23.444-7.727,75.161,75.157,158.045s134.6,81.583,158.04,75.152a28.725,28.725,0,0,0,16.884-13.046L266.849,229.3A11.721,11.721,0,0,0,263.3,213.516Z" transform="translate(0 0)" fill="url(#a)"/><path d="M287.111,71.051a78.791,78.791,0,0,1,78.7,78.7,4.63,4.63,0,1,0,9.26,0,88.059,88.059,0,0,0-87.962-87.962,4.63,4.63,0,0,0,0,9.259Z" transform="translate(-134.336 -29.385)" fill="url(#a)"/><path d="M287.111,124.016a50.985,50.985,0,0,1,50.925,50.925,4.63,4.63,0,1,0,9.26,0,60.254,60.254,0,0,0-60.185-60.185,4.63,4.63,0,0,0,0,9.26Z" transform="translate(-134.335 -54.573)" fill="url(#a)"/><path d="M287.111,176.982a23.175,23.175,0,0,1,23.148,23.148,4.63,4.63,0,1,0,9.26,0,32.444,32.444,0,0,0-32.407-32.407,4.63,4.63,0,1,0,0,9.259Z" transform="translate(-134.336 -79.761)" fill="url(#a)"/></g></g></svg>