<svg xmlns="http://www.w3.org/2000/svg" xmlns:xlink="http://www.w3.org/1999/xlink" width="338.535" height="238.032" viewBox="0 0 338.535 238.032"><defs><linearGradient id="a" x1="0.5" y1="0.119" x2="0.5" y2="1" gradientUnits="objectBoundingBox"><stop offset="0" stop-color="#055c9a"/><stop offset="1" stop-color="#5b9ec3"/></linearGradient></defs><g transform="translate(0 -76)"><g transform="translate(17.341 209.067)"><path d="M228.243,277.251,199.89,305.7c-11.5,11.538-31.728,11.787-43.474,0l-28.354-28.449L26.226,379.417a29.463,29.463,0,0,0,12.413,2.8H317.666a29.436,29.436,0,0,0,12.411-2.8Z" transform="translate(-26.226 -277.251)" fill="url(#a)"/></g><g transform="translate(17.342 76)"><path d="M317.667,76H38.64a29.452,29.452,0,0,0-12.412,2.8L135.046,187.978c.007.007.016.009.023.016a.033.033,0,0,1,.009.017l35.383,35.5c3.758,3.758,11.628,3.758,15.386,0l35.376-35.494a.129.129,0,0,1,.016-.023.13.13,0,0,0,.023-.016L330.077,78.8A29.436,29.436,0,0,0,317.667,76Z" transform="translate(-26.228 -76)" fill="url(#a)"/></g><g transform="translate(0 92.67)"><path d="M3.165,101.212A29.389,29.389,0,0,0,0,114.3V292.82A29.38,29.38,0,0,0,3.164,305.9L105.176,203.561Z" transform="translate(0 -101.212)" fill="url(#a)"/></g><g transform="translate(233.36 92.669)"><path d="M454.944,101.21,352.933,203.561,454.944,305.9a29.39,29.39,0,0,0,3.165-13.085V114.3A29.39,29.39,0,0,0,454.944,101.21Z" transform="translate(-352.933 -101.21)" fill="url(#a)"/></g></g></svg>