<svg viewBox="0 0 64 64"><path d="M41,14h6a1,1,0,0,0,1-1V8a1,1,0,0,0-1-1H41a1,1,0,0,0-1,1v5A1,1,0,0,0,41,14Zm1-5h4v3H42Z"/><circle cx="29" cy="8" r="1"/><circle cx="37" cy="8" r="1"/><circle cx="33" cy="8" r="1"/><path d="M18,12a1,1,0,0,0,1-1V8a1,1,0,0,0-2,0v3A1,1,0,0,0,18,12Z"/><path d="M41,27h6a1,1,0,0,0,1-1V21a1,1,0,0,0-1-1H41a1,1,0,0,0-1,1v5A1,1,0,0,0,41,27Zm1-5h4v3H42Z"/><circle cx="33" cy="21" r="1"/><circle cx="29" cy="21" r="1"/><circle cx="37" cy="21" r="1"/><path d="M18,25a1,1,0,0,0,1-1V21a1,1,0,0,0-2,0v3A1,1,0,0,0,18,25Z"/><path d="M41,40h6a1,1,0,0,0,1-1V34a1,1,0,0,0-1-1H41a1,1,0,0,0-1,1v5A1,1,0,0,0,41,40Zm1-5h4v3H42Z"/><circle cx="33" cy="34" r="1"/><circle cx="37" cy="34" r="1"/><circle cx="29" cy="34" r="1"/><circle cx="47" cy="47" r="1"/><circle cx="43" cy="47" r="1"/><circle cx="39" cy="47" r="1"/><path d="M18,38a1,1,0,0,0,1-1V34a1,1,0,0,0-2,0v3A1,1,0,0,0,18,38Z"/><path d="M51,3H13a1,1,0,0,0-1,1V51a1,1,0,0,0,1,1H23v3.18A3,3,0,0,0,21.18,57H16a1,1,0,0,0,0,2h5.18a3,3,0,0,0,5.64,0H37.18a3,3,0,0,0,5.64,0H48a1,1,0,0,0,0-2H42.82A3,3,0,0,0,41,55.18V52H51a1,1,0,0,0,1-1V4A1,1,0,0,0,51,3ZM24,59a1,1,0,1,1,1-1A1,1,0,0,1,24,59Zm13.18-2H26.82A3,3,0,0,0,25,55.18V52H39v3.18A3,3,0,0,0,37.18,57ZM40,59a1,1,0,1,1,1-1A1,1,0,0,1,40,59Zm10-9H14V44H50Zm0-8H14V31H50Zm0-13H14V18H50Zm0-13H14V5H50Z"/></svg>
