<?xml version="1.0" encoding="UTF-8" standalone="no"?>
<svg
   xmlns:dc="http://purl.org/dc/elements/1.1/"
   xmlns:cc="http://creativecommons.org/ns#"
   xmlns:rdf="http://www.w3.org/1999/02/22-rdf-syntax-ns#"
   xmlns:svg="http://www.w3.org/2000/svg"
   xmlns="http://www.w3.org/2000/svg"
   xmlns:sodipodi="http://sodipodi.sourceforge.net/DTD/sodipodi-0.dtd"
   xmlns:inkscape="http://www.inkscape.org/namespaces/inkscape"
   version="1.1"
   id="Capa_1"
   x="0px"
   y="0px"
   viewBox="0 0 452.92186 452.92186"
   xml:space="preserve"
   sodipodi:docname="services-cybersecurity-2.svg"
   width="452.92188"
   height="452.92188"
   inkscape:version="1.0.2 (e86c870879, 2021-01-15, custom)"><metadata
   id="metadata102"><rdf:RDF><cc:Work
       rdf:about=""><dc:format>image/svg+xml</dc:format><dc:type
         rdf:resource="http://purl.org/dc/dcmitype/StillImage" /><dc:title></dc:title></cc:Work></rdf:RDF></metadata><defs
   id="defs100"><linearGradient
     id="a"
     x1="114.45069"
     y1="81.582512"
     x2="228.88971"
     y2="182.38719"
     gradientUnits="userSpaceOnUse"
     gradientTransform="matrix(0.9354191,0,0,1.0690395,-279.50922,-25.400414)"><stop
       offset="0"
       stop-color="#f69334"
       id="stop927" /><stop
       offset="1"
       stop-color="#ec2f5a"
       id="stop929" /></linearGradient></defs><sodipodi:namedview
   pagecolor="#ffffff"
   bordercolor="#666666"
   borderopacity="1"
   objecttolerance="10"
   gridtolerance="10"
   guidetolerance="10"
   inkscape:pageopacity="0"
   inkscape:pageshadow="2"
   inkscape:window-width="1871"
   inkscape:window-height="2114"
   id="namedview98"
   showgrid="false"
   fit-margin-top="0"
   fit-margin-left="0"
   fit-margin-right="0"
   fit-margin-bottom="0"
   inkscape:zoom="1.4244048"
   inkscape:cx="199.49919"
   inkscape:cy="333.88584"
   inkscape:window-x="2643"
   inkscape:window-y="0"
   inkscape:window-maximized="0"
   inkscape:current-layer="g990" />

<g
   id="g67"
   transform="translate(77.824904,157.78926)">
</g>
<g
   id="g69"
   transform="translate(77.824904,157.78926)">
</g>
<g
   id="g71"
   transform="translate(77.824904,157.78926)">
</g>
<g
   id="g73"
   transform="translate(77.824904,157.78926)">
</g>
<g
   id="g75"
   transform="translate(77.824904,157.78926)">
</g>
<g
   id="g77"
   transform="translate(77.824904,157.78926)">
</g>
<g
   id="g79"
   transform="translate(77.824904,157.78926)">
</g>
<g
   id="g81"
   transform="translate(77.824904,157.78926)">
</g>
<g
   id="g83"
   transform="translate(77.824904,157.78926)">
</g>
<g
   id="g85"
   transform="translate(77.824904,157.78926)">
</g>
<g
   id="g87"
   transform="translate(77.824904,157.78926)">
</g>
<g
   id="g89"
   transform="translate(77.824904,157.78926)">
</g>
<g
   id="g91"
   transform="translate(77.824904,157.78926)">
</g>
<g
   id="g93"
   transform="translate(77.824904,157.78926)">
</g>
<g
   id="g95"
   transform="translate(77.824904,157.78926)">
</g>
<g
   id="g990"><path
     d="M 50.425781,117.83203 C 63.878906,329.75781 184.66797,387.94922 226.46094,401.74219 268.25391,387.94922 389.04297,329.75781 402.5,117.82422 354.86719,98.683594 275.34375,67.371094 226.46094,51.59375 177.42578,67.421875 97.984375,98.707031 50.425781,117.83203 Z m 260.277339,1.73828 29.54297,19.71875 c 2.26563,1.51563 3.80078,3.89844 4.25,6.58594 0.44532,2.6875 -0.23828,5.44141 -1.89062,7.60547 L 214.58984,321.09766 c -1.72265,2.2539 -4.33593,3.65625 -7.16797,3.84765 -0.22265,0.0156 -0.4375,0.0234 -0.65625,0.0234 -2.60937,-0.004 -5.11718,-1.04297 -6.96093,-2.89063 l -68.9336,-69.01562 c -3.84375,-3.85156 -3.84375,-10.09375 0,-13.94531 l 29.54297,-29.57813 c 1.84375,-1.84765 4.35156,-2.88672 6.96485,-2.88672 2.60937,0 5.11718,1.03907 6.96093,2.88672 l 31.46094,31.5 91.63672,-119.28125 c 3.15234,-4.11328 8.95703,-5.07031 13.26562,-2.1875 z m 0,0"
     id="path976"
     style="fill:#f69334;fill-opacity:1" /><path
     d="M 226.46094,0 C 164.92969,18.074219 30.308594,72.691406 0,85.078125 2.878906,391.98828 205.37109,447.94531 226.51562,452.92187 249.76172,447.78906 450.10547,394.47266 452.92187,85.078125 422.61719,72.691406 287.99219,18.074219 226.46094,0 Z m 2.90625,421.51562 c -1.89453,0.58204 -3.91797,0.58204 -5.8086,0 -42.26172,-13.0664 -181.074215,-74.02343 -193.203121,-309.68359 -0.21875,-4.19922 2.253906,-8.07812 6.152343,-9.65234 C 84.179688,82.957031 171.85937,48.253906 223.48047,31.847656 c 1.9375,-0.617187 4.01953,-0.617187 5.95703,0 51.44922,16.34375 139.23047,51.078125 186.97656,70.328124 3.89844,1.57422 6.3711,5.44922 6.15235,9.65234 C 410.4375,347.49219 271.625,408.44922 229.36719,421.51562 Z m 0,0"
     id="path978"
     style="fill:#f69334;fill-opacity:1" /></g></svg>
