<?xml version="1.0" encoding="UTF-8" standalone="no"?>
<svg
   xmlns:dc="http://purl.org/dc/elements/1.1/"
   xmlns:cc="http://creativecommons.org/ns#"
   xmlns:rdf="http://www.w3.org/1999/02/22-rdf-syntax-ns#"
   xmlns:svg="http://www.w3.org/2000/svg"
   xmlns="http://www.w3.org/2000/svg"
   xmlns:sodipodi="http://sodipodi.sourceforge.net/DTD/sodipodi-0.dtd"
   xmlns:inkscape="http://www.inkscape.org/namespaces/inkscape"
   width="320.563"
   height="312.36"
   viewBox="0 0 320.563 312.36"
   version="1.1"
   id="svg15"
   sodipodi:docname="services-vendor-application-support.svg"
   inkscape:version="1.0.2 (e86c870879, 2021-01-15, custom)">
  <metadata
     id="metadata19">
    <rdf:RDF>
      <cc:Work
         rdf:about="">
        <dc:format>image/svg+xml</dc:format>
        <dc:type
           rdf:resource="http://purl.org/dc/dcmitype/StillImage" />
        <dc:title></dc:title>
      </cc:Work>
    </rdf:RDF>
  </metadata>
  <sodipodi:namedview
     pagecolor="#ffffff"
     bordercolor="#666666"
     borderopacity="1"
     objecttolerance="10"
     gridtolerance="10"
     guidetolerance="10"
     inkscape:pageopacity="0"
     inkscape:pageshadow="2"
     inkscape:window-width="1827"
     inkscape:window-height="1166"
     id="namedview17"
     showgrid="false"
     inkscape:zoom="3.1374057"
     inkscape:cx="160.28149"
     inkscape:cy="156.17999"
     inkscape:window-x="82"
     inkscape:window-y="-11"
     inkscape:window-maximized="1"
     inkscape:current-layer="svg15" />
  <defs
     id="defs7">
    <linearGradient
       id="a"
       x1="0.154"
       y1="0.162"
       x2="0.935"
       y2="0.934"
       gradientUnits="objectBoundingBox">
      <stop
         offset="0"
         stop-color="#f69334"
         id="stop2" />
      <stop
         offset="1"
         stop-color="#ec2f5a"
         id="stop4" />
    </linearGradient>
  </defs>
  <g
     transform="translate(0 -6.552)"
     id="g13"
     style="fill:#f69334;fill-opacity:1">
    <g
       transform="translate(0 6.552)"
       id="g11"
       style="fill:#f69334;fill-opacity:1">
      <path
         d="M317.3,278.3a4.753,4.753,0,0,0-.528-.454l-33.314-24.636a155.837,155.837,0,0,0,28.413-78.238,4.7,4.7,0,0,0-9.363-.727A146.794,146.794,0,0,1,246.6,278.37c-4.09-2.081-5.527-4.1-17.979-16.551A122.963,122.963,0,0,0,256.154,91.7c-48.225-67.963-150.9-70.128-200.654,0a122.87,122.87,0,0,0-22.61,71.064c0,67.6,54.89,123.152,122.938,122.938h.053a122.011,122.011,0,0,0,37.06-5.71l18.691,18.691a145.545,145.545,0,0,1-55.451,10.842c-80.939,0-146.788-65.85-146.788-146.79S75.241,15.944,156.18,15.944c77.1,0,141.428,60.2,146.458,137.054a4.7,4.7,0,0,0,9.372-.614A156.125,156.125,0,1,0,219.156,305.67a60.832,60.832,0,0,0,24.5,12.024,4.7,4.7,0,1,0,2.1-9.154A52.618,52.618,0,0,1,220.532,294.3L180.8,254.562c-10.542-10.542-15.222-24.251-15.222-32.285.122-7-1.469-33.08,20.562-56.283,1.171-1.232,2.345-2.843,3.841-1.716l23.262,31.457-12.878,12.878a1.789,1.789,0,0,1-2.5,0,7.05,7.05,0,0,0-11.8,3.191,29.813,29.813,0,0,0,7.754,28.5l40.974,40.974a29.851,29.851,0,0,0,28.5,7.753,7.053,7.053,0,0,0,3.191-11.8,1.79,1.79,0,0,1,0-2.5l12.878-12.878,31.457,23.263a1.8,1.8,0,0,1-.157,2.318l-.178.178A74.725,74.725,0,0,1,266.1,308.958a4.7,4.7,0,1,0,1.042,9.333,84.149,84.149,0,0,0,49.98-24.038l.178-.178A11.171,11.171,0,0,0,317.3,278.3ZM123.316,53.993A91.236,91.236,0,0,0,106.182,76.9c-.626.626-7.4,13.685-12.076,30.241a118.448,118.448,0,0,1-28.133-13.72A113.552,113.552,0,0,1,123.316,53.993ZM60.54,101.079a128.6,128.6,0,0,0,31.252,15.164,209.261,209.261,0,0,0-4.982,41.821H42.385A112.825,112.825,0,0,1,60.54,101.079ZM42.385,167.456H86.81a209.545,209.545,0,0,0,4.982,41.82A128.63,128.63,0,0,0,60.54,224.44,113.537,113.537,0,0,1,42.385,167.456Zm23.588,64.639a118.424,118.424,0,0,1,28.133-13.72c5.411,19.169,14.861,39.674,29.254,53.194A113.912,113.912,0,0,1,65.974,232.094Zm85.157,43.85c-25.285-3.839-41.15-35.742-48.062-60.361a196.09,196.09,0,0,1,48.062-6.886Zm0-76.641a205.507,205.507,0,0,0-50.344,7.2A199.706,199.706,0,0,1,96.2,167.456h54.929V199.3Zm0-41.239H96.2a200.415,200.415,0,0,1,4.585-39.047,205.558,205.558,0,0,0,50.343,7.2v31.847Zm0-41.241a196.061,196.061,0,0,1-48.062-6.885c6.893-24.548,22.937-56.558,48.062-60.361Zm100.008,107.64a128.847,128.847,0,0,0-31.3-15.229q.962-4.225,1.741-8.563c1.259-1.259,2.558-2.292,2.53-4.536a5.117,5.117,0,0,0-1.294-3.238,217,217,0,0,0,2.022-25.44h44.422A112.794,112.794,0,0,1,251.139,224.463Zm18.13-66.4H224.844a209.555,209.555,0,0,0-4.982-41.821,128.623,128.623,0,0,0,31.252-15.164A112.82,112.82,0,0,1,269.269,158.064ZM245.68,93.425a118.452,118.452,0,0,1-28.134,13.72c-5.367-19.013-14.786-39.58-29.21-53.152A113.532,113.532,0,0,1,245.68,93.425ZM160.523,49.576c25.17,3.826,41.156,35.764,48.061,60.361a196.086,196.086,0,0,1-48.061,6.886ZM174.155,261.2l5.48,5.482c-6.111,5.171-12.511,8.274-19.112,9.269V241.105A62.912,62.912,0,0,0,174.155,261.2ZM160.523,190.85V167.456h12.14A83.247,83.247,0,0,0,160.523,190.85Zm20.224-32.786H160.522V126.216a205.5,205.5,0,0,0,50.343-7.2,200.458,200.458,0,0,1,4.584,39.047H197.03A11.141,11.141,0,0,0,180.747,158.064Zm23.261,9.392h11.445c-.106,4.832-.374,9.638-.8,14.389Zm-2.3,67.459-1.253-1.253a20.417,20.417,0,0,1-5.886-16.1,11.179,11.179,0,0,0,12.523-2.4c.49.132.972.272,1.458.408A149.322,149.322,0,0,1,201.712,234.914ZM221.9,255.1,208.8,242.006a155.019,155.019,0,0,0,8.717-23.647,118.813,118.813,0,0,1,28.2,13.76A115.468,115.468,0,0,1,221.9,255.1Z"
         transform="translate(0 -6.552)"
         fill="url(#a)"
         id="path9"
         style="fill:#f69334;fill-opacity:1" />
    </g>
  </g>
</svg>
