<svg xmlns="http://www.w3.org/2000/svg" xmlns:xlink="http://www.w3.org/1999/xlink" width="265.238" height="249.214" viewBox="0 0 265.238 249.214"><defs><linearGradient id="a" x1="0.232" y1="0.347" x2="0.666" y2="0.708" gradientUnits="objectBoundingBox"><stop offset="0" stop-color="#f69334"/><stop offset="1" stop-color="#ec2f5a"/></linearGradient></defs><g transform="translate(0 -15.466)"><g transform="translate(0 15.466)"><path d="M261.256,223.934H252.5V77.364a21.232,21.232,0,0,0-21.039-21.372H212.921a3.982,3.982,0,1,0,0,7.964h18.536a13.26,13.26,0,0,1,13.075,13.408v146.57H20.707V77.364A13.259,13.259,0,0,1,33.781,63.956H67.888c-.036,4.478.119,9.229.54,14.184q.288,3.44.748,6.861a124.671,124.671,0,0,0,14.155,44.07,106.374,106.374,0,0,0,20.3,26.353,3.982,3.982,0,1,0,5.453-5.8,98.428,98.428,0,0,1-18.772-24.388,115.191,115.191,0,0,1-12.347-35.74h51.6v74.587a85.27,85.27,0,0,1-7.964-4.6,3.982,3.982,0,0,0-4.352,6.67,91.12,91.12,0,0,0,14.77,7.836,4.02,4.02,0,0,0,3.056,0,90.192,90.192,0,0,0,12.263-6.277,98.047,98.047,0,0,0,12.726-9.248,102.022,102.022,0,0,0,13.175-13.619,109.164,109.164,0,0,0,11.664-17.9,120.959,120.959,0,0,0,8.21-19.928,132.421,132.421,0,0,0,4.723-21.393c.116-.849.229-1.7.329-2.55H227.01V205.152H40.084V83.07H54.522a3.982,3.982,0,1,0,0-7.964H36.1a3.982,3.982,0,0,0-3.982,3.982V209.135a3.982,3.982,0,0,0,3.982,3.982h194.89a3.982,3.982,0,0,0,3.982-3.982V79.088a3.982,3.982,0,0,0-3.982-3.982H198.9a156.32,156.32,0,0,0-2.776-40.893q-.155-.755-.319-1.509a8.339,8.339,0,0,0-2.049-3.938c-.021-.022-.04-.046-.061-.068l-.038-.037a7.149,7.149,0,0,0-3.717-2.051L134.325,15.542a4.036,4.036,0,0,0-1.555,0L77.158,26.61a7.35,7.35,0,0,0-4.452,2.921A11.473,11.473,0,0,0,70.978,34.2a153.274,153.274,0,0,0-2.826,21.792H33.782A21.232,21.232,0,0,0,12.743,77.364v146.57H3.982A3.982,3.982,0,0,0,0,227.916v8.216A28.58,28.58,0,0,0,28.548,264.68H236.69a28.58,28.58,0,0,0,28.548-28.548v-8.216A3.982,3.982,0,0,0,261.256,223.934ZM181.265,116.08c-.055.127-.109.254-.164.38,0-.011.006-.013,0,.01-.131.3-.037.083,0,.005a104.088,104.088,0,0,1-13.367,22.491,93.434,93.434,0,0,1-18.4,17.843,86.623,86.623,0,0,1-11.8,7.263V89.492h51.6A118.486,118.486,0,0,1,181.265,116.08ZM137.529,24.3,188,34.347c.257.889.391,1.838.566,2.746a150.721,150.721,0,0,1,1.713,44.436H137.529Zm-59,12.776c.176-.906.314-1.841.563-2.73L129.565,24.3V81.529H76.81A150.724,150.724,0,0,1,78.526,37.076ZM257.274,236.132h0a20.608,20.608,0,0,1-20.584,20.583H28.548A20.607,20.607,0,0,1,7.964,236.132V231.9H247.628a3.891,3.891,0,0,0,1.771,0h7.875Z" transform="translate(0 -15.466)" fill="url(#a)"/><path d="M349.577,210.43a.062.062,0,0,0,0-.01l-.007.015Z" transform="translate(-168.479 -109.425)" fill="url(#a)"/></g></g></svg>