<?xml version="1.0" encoding="UTF-8" standalone="no"?>
<svg
   xmlns:dc="http://purl.org/dc/elements/1.1/"
   xmlns:cc="http://creativecommons.org/ns#"
   xmlns:rdf="http://www.w3.org/1999/02/22-rdf-syntax-ns#"
   xmlns:svg="http://www.w3.org/2000/svg"
   xmlns="http://www.w3.org/2000/svg"
   xmlns:sodipodi="http://sodipodi.sourceforge.net/DTD/sodipodi-0.dtd"
   xmlns:inkscape="http://www.inkscape.org/namespaces/inkscape"
   width="262.568"
   height="281.281"
   viewBox="0 0 262.568 281.281"
   version="1.1"
   id="svg19"
   sodipodi:docname="services-24-7-monitoring.svg"
   inkscape:version="1.0.2 (e86c870879, 2021-01-15, custom)">
  <metadata
     id="metadata23">
    <rdf:RDF>
      <cc:Work
         rdf:about="">
        <dc:format>image/svg+xml</dc:format>
        <dc:type
           rdf:resource="http://purl.org/dc/dcmitype/StillImage" />
        <dc:title></dc:title>
      </cc:Work>
    </rdf:RDF>
  </metadata>
  <sodipodi:namedview
     pagecolor="#ffffff"
     bordercolor="#666666"
     borderopacity="1"
     objecttolerance="10"
     gridtolerance="10"
     guidetolerance="10"
     inkscape:pageopacity="0"
     inkscape:pageshadow="2"
     inkscape:window-width="1827"
     inkscape:window-height="1166"
     id="namedview21"
     showgrid="false"
     inkscape:zoom="1.2669957"
     inkscape:cx="354.53146"
     inkscape:cy="264.08036"
     inkscape:window-x="82"
     inkscape:window-y="-11"
     inkscape:window-maximized="1"
     inkscape:current-layer="g17" />
  <defs
     id="defs7">
    <linearGradient
       id="a"
       x1="0.208"
       y1="0.34"
       x2="0.848"
       y2="0.699"
       gradientUnits="objectBoundingBox">
      <stop
         offset="0"
         stop-color="#f69334"
         id="stop2" />
      <stop
         offset="1"
         stop-color="#ec2f5a"
         id="stop4" />
    </linearGradient>
  </defs>
  <g
     transform="translate(-17.029)"
     id="g17">
    <g
       transform="translate(17.029 0)"
       id="g15"
       style="fill:#000000;fill-opacity:1">
      <path
         d="M177.476,22a4.691,4.691,0,1,0-2.079,9.148,121.965,121.965,0,1,1-39.423-2.4l-15.3,14.758a4.689,4.689,0,0,0,6.511,6.749L151.365,26.93a4.6,4.6,0,0,0,1.3-1.857,4.6,4.6,0,0,0,.17-.843,4.443,4.443,0,0,0,.159-.789c0-.058-.031-.1-.033-.162,0-.131.063-.251.051-.383a4.536,4.536,0,0,0-.332-1.01c-.044-.124-.068-.251-.121-.37a4.5,4.5,0,0,0-.889-1.319l-.107-.112a4.572,4.572,0,0,0-.643-.669L122.583.773a4.687,4.687,0,1,0-5.155,7.83l16.623,10.938A131.158,131.158,0,1,0,177.476,22Z"
         transform="translate(-17.029 0)"
         fill="url(#a)"
         id="path9"
         style="fill:#f69334;fill-opacity:1" />
      <path
         d="M132.636,114.808h0a4.28,4.28,0,0,0-.456.154,4.48,4.48,0,0,0-.451.4,94.331,94.331,0,0,0-33.472,33.472,1.37,1.37,0,0,0-.551.906,93.057,93.057,0,0,0,0,92.862,4.4,4.4,0,0,0,.153.454,4.6,4.6,0,0,0,.579.748,94.325,94.325,0,0,0,33.292,33.176,4.421,4.421,0,0,0,.451.4,4.587,4.587,0,0,0,.63.26,93.1,93.1,0,0,0,92.509,0,4.559,4.559,0,0,0,.63-.26,4.481,4.481,0,0,0,.451-.4A94.325,94.325,0,0,0,259.691,243.8a4.661,4.661,0,0,0,.579-.748,4.492,4.492,0,0,0,.153-.454,93.057,93.057,0,0,0,0-92.862,4.275,4.275,0,0,0-.153-.454,4.319,4.319,0,0,0-.4-.448A94.322,94.322,0,0,0,226.4,115.36a1.368,1.368,0,0,0-.905-.551A93.055,93.055,0,0,0,132.636,114.808Zm51.117,1.656v-4.451a83.686,83.686,0,0,1,33.335,8.917l-2.233,3.866a4.689,4.689,0,0,0,8.122,4.689l2.242-3.882a84.992,84.992,0,0,1,24.409,24.409l-3.882,2.242a4.689,4.689,0,0,0,4.689,8.122l3.866-2.233a83.686,83.686,0,0,1,8.917,33.335h-4.451a4.688,4.688,0,0,0,0,9.377h4.451a83.686,83.686,0,0,1-8.917,33.335l-3.866-2.233a4.689,4.689,0,1,0-4.688,8.123l3.882,2.242a84.994,84.994,0,0,1-24.409,24.409l-2.242-3.882a4.689,4.689,0,1,0-8.123,4.688l2.233,3.866a83.686,83.686,0,0,1-33.335,8.917V275.87a4.688,4.688,0,0,0-9.377,0v4.451a83.686,83.686,0,0,1-33.335-8.917l2.233-3.866a4.689,4.689,0,0,0-8.122-4.689l-2.242,3.882A84.993,84.993,0,0,1,108.5,242.322l3.882-2.242a4.689,4.689,0,1,0-4.688-8.123l-3.866,2.233a83.686,83.686,0,0,1-8.917-33.335h4.451a4.688,4.688,0,1,0,0-9.377H94.911a83.686,83.686,0,0,1,8.917-33.335l3.866,2.233a4.689,4.689,0,1,0,4.688-8.123l-3.882-2.242A84.994,84.994,0,0,1,132.91,125.6l2.242,3.882a4.689,4.689,0,1,0,8.123-4.688l-2.233-3.866a83.686,83.686,0,0,1,33.335-8.917v4.451a4.688,4.688,0,0,0,9.376,0Z"
         transform="translate(-47.788 -46.138)"
         fill="url(#a)"
         id="path11"
         style="fill:#f69334;fill-opacity:1" />
      <path
         d="M235.894,175.355V208.84a18.714,18.714,0,1,0,22.777,22.777h19.42a4.688,4.688,0,0,0,0-9.377H258.67a18.721,18.721,0,0,0-13.4-13.4V175.355a4.689,4.689,0,0,0-9.377,0Zm14.065,51.573a9.377,9.377,0,1,1-9.377-9.377A9.389,9.389,0,0,1,249.959,226.928Z"
         transform="translate(-109.305 -76.898)"
         fill="url(#a)"
         id="path13"
         style="fill:#f69334;fill-opacity:1" />
    </g>
  </g>
</svg>
