<?xml version="1.0" encoding="UTF-8" standalone="no"?>
<svg
   xmlns:dc="http://purl.org/dc/elements/1.1/"
   xmlns:cc="http://creativecommons.org/ns#"
   xmlns:rdf="http://www.w3.org/1999/02/22-rdf-syntax-ns#"
   xmlns:svg="http://www.w3.org/2000/svg"
   xmlns="http://www.w3.org/2000/svg"
   xmlns:sodipodi="http://sodipodi.sourceforge.net/DTD/sodipodi-0.dtd"
   xmlns:inkscape="http://www.inkscape.org/namespaces/inkscape"
   width="228.193"
   height="227.731"
   viewBox="0 0 228.193 227.731"
   version="1.1"
   id="svg27"
   sodipodi:docname="services-proactive-maintenance.svg"
   inkscape:version="1.0.2 (e86c870879, 2021-01-15, custom)">
  <metadata
     id="metadata31">
    <rdf:RDF>
      <cc:Work
         rdf:about="">
        <dc:format>image/svg+xml</dc:format>
        <dc:type
           rdf:resource="http://purl.org/dc/dcmitype/StillImage" />
        <dc:title></dc:title>
      </cc:Work>
    </rdf:RDF>
  </metadata>
  <sodipodi:namedview
     pagecolor="#ffffff"
     bordercolor="#666666"
     borderopacity="1"
     objecttolerance="10"
     gridtolerance="10"
     guidetolerance="10"
     inkscape:pageopacity="0"
     inkscape:pageshadow="2"
     inkscape:window-width="1827"
     inkscape:window-height="1166"
     id="namedview29"
     showgrid="false"
     inkscape:zoom="4.3033227"
     inkscape:cx="114.0965"
     inkscape:cy="113.8655"
     inkscape:window-x="82"
     inkscape:window-y="-11"
     inkscape:window-maximized="1"
     inkscape:current-layer="g25" />
  <defs
     id="defs7">
    <linearGradient
       id="a"
       x1="0.336"
       y1="-1.905"
       x2="3.068"
       y2="0.5"
       gradientUnits="objectBoundingBox">
      <stop
         offset="0"
         stop-color="#f69334"
         id="stop2" />
      <stop
         offset="1"
         stop-color="#ec2f5a"
         id="stop4" />
    </linearGradient>
  </defs>
  <g
     transform="translate(0.001 -0.518)"
     id="g25">
    <g
       transform="translate(21.134 152.723)"
       id="g11"
       style="fill:#f69334;fill-opacity:1">
      <path
         d="M96.862,343a3.344,3.344,0,0,0-4.728,0L48.4,386.737a3.343,3.343,0,1,0,4.728,4.728L96.862,347.73A3.343,3.343,0,0,0,96.862,343Z"
         transform="translate(-47.419 -342.023)"
         fill="url(#a)"
         id="path9"
         style="fill:#f69334;fill-opacity:1" />
    </g>
    <g
       transform="translate(30.879 162.468)"
       id="g15"
       style="fill:#f69334;fill-opacity:1">
      <path
         d="M118.726,364.866a3.344,3.344,0,0,0-4.728,0L70.263,408.6a3.343,3.343,0,1,0,4.728,4.728l43.735-43.736A3.343,3.343,0,0,0,118.726,364.866Z"
         transform="translate(-69.284 -363.887)"
         fill="url(#a)"
         id="path13"
         style="fill:#f69334;fill-opacity:1" />
    </g>
    <g
       transform="translate(-0.001 0.518)"
       id="g19"
       style="fill:#f69334;fill-opacity:1">
      <path
         d="M170.379,145.047a2.029,2.029,0,0,1-1.7-.576l-32.088-32.088,63.018-63.019,6.8-1.662a6.908,6.908,0,0,0,4.181-2.978l10.678-16.547a5.789,5.789,0,0,0-.767-7.192l-7.523-7.522a5.7,5.7,0,0,0-7.08-.755l-16.578,10.7a7,7,0,0,0-3.016,4.234l-1.654,6.768L121.637,97.427,83.517,59.307a.465.465,0,0,1-.08-.493,44.371,44.371,0,0,0,2.342-8.97,3.343,3.343,0,0,0-6.611-1,37.655,37.655,0,0,1-1.989,7.616,7.161,7.161,0,0,0,1.612,7.574l38.118,38.118-5.295,5.295L80.549,76.385a3.343,3.343,0,0,0-4.728,4.728l31.065,31.065-5.167,5.167-.062-.055a13.909,13.909,0,0,0-1.1-.924L64.235,80.048a8.782,8.782,0,0,0-9.067-2.062A35.8,35.8,0,0,1,18.259,70.2,35.822,35.822,0,0,1,7.713,35.188l26.1,26.1A5.874,5.874,0,0,0,39.461,62.8l14.722-3.946a5.865,5.865,0,0,0,4.14-4.138l3.946-14.726a5.869,5.869,0,0,0-1.514-5.651L34.66,8.243c20.378-4.889,39,8.2,43.753,26.349A3.343,3.343,0,1,0,84.881,32.9C79.1,10.805,56.05-4.708,31.483,2.161A5.857,5.857,0,0,0,28.9,11.944L55.685,38.725l-3.7,13.794L38.2,56.215,11.414,29.434a5.856,5.856,0,0,0-9.782,2.577A42.727,42.727,0,0,0,13.686,75.073,42.381,42.381,0,0,0,57.379,84.3a2.032,2.032,0,0,1,2.129.48l29.25,29.25c-4.292,1.1-6.142,3.419-9.312,6.589a6.962,6.962,0,0,0-1.11,8.3,6.383,6.383,0,0,1-8.614,8.719,7.318,7.318,0,0,0-8.6,1.312L10.052,190.009a13.852,13.852,0,0,0,0,19.6l14.361,14.362a13.876,13.876,0,0,0,19.6,0L95.082,172.9a7.313,7.313,0,0,0,1.311-8.6,6.383,6.383,0,0,1,8.651-8.651,7.312,7.312,0,0,0,8.6-1.312l.962-.963h0l1.773-1.774a13.773,13.773,0,0,0,3.622-6.327l24.665,24.665a.4.4,0,0,1,.114.266,43.175,43.175,0,0,0,33.517,58,3.343,3.343,0,1,0,1.04-6.6,36.462,36.462,0,0,1-28.19-49.326,7.028,7.028,0,0,0-1.754-7.067c-39.919-39.919-29.644-29.594-32.724-32.909l5.167-5.167,29.153,29.153a3.343,3.343,0,1,0,4.728-4.728l-29.153-29.153,5.295-5.3L163.952,149.2a8.645,8.645,0,0,0,8.465,2.221c24.526-9.083,49.063,9.76,49.087,34a36.668,36.668,0,0,1-27.866,35.6,3.343,3.343,0,1,0,1.567,6.5,43.143,43.143,0,0,0,32.985-42.128C228.161,156.678,199.235,134.578,170.379,145.047ZM90.519,167.5a.622.622,0,0,1-.166.681L39.286,219.243a7.186,7.186,0,0,1-10.145,0L14.78,204.881a7.168,7.168,0,0,1,0-10.145L65.847,143.67a.629.629,0,0,1,.681-.166,13.038,13.038,0,0,0,12.62-.082L90.6,154.875A13.029,13.029,0,0,0,90.519,167.5Zm4.737-17.419L83.948,138.768a13.158,13.158,0,0,0,1.5-9.825l19.631,19.63A13.208,13.208,0,0,0,95.256,150.076Zm18.443-7.4a7.012,7.012,0,0,1-1.489,3.567L87.778,121.814a7.2,7.2,0,0,1,9.517.553l13.327,13.327C111.69,136.763,114.173,138.773,113.7,142.678Zm-1.748-15.111-5.5-5.5,83.592-83.592a3.338,3.338,0,0,0,.883-1.57l1.876-7.677a.34.34,0,0,1,.146-.205l15.886-10.251,6.411,6.41L204.975,41.1a.25.25,0,0,1-.151.108l-7.71,1.884a3.339,3.339,0,0,0-1.57.883Z"
         transform="translate(0.001 -0.518)"
         fill="url(#a)"
         id="path17"
         style="fill:#f69334;fill-opacity:1" />
    </g>
    <g
       transform="translate(164.963 165.207)"
       id="g23"
       style="fill:#f69334;fill-opacity:1">
      <path
         d="M409.307,382.265l-10.519-10.519a5.867,5.867,0,0,0-5.652-1.514l-14.722,3.946a5.863,5.863,0,0,0-4.14,4.138l-3.946,14.725a5.873,5.873,0,0,0,1.514,5.653l10.52,10.519a5.867,5.867,0,0,0,5.653,1.514l14.722-3.945a5.867,5.867,0,0,0,4.14-4.138l3.946-14.724A5.87,5.87,0,0,0,409.307,382.265Zm-8.765,18.182-13.794,3.7-9.838-9.837,3.7-13.794,13.794-3.7,9.838,9.838Z"
         transform="translate(-370.13 -370.034)"
         fill="url(#a)"
         id="path21"
         style="fill:#f69334;fill-opacity:1" />
    </g>
  </g>
</svg>
