<?xml version="1.0" encoding="UTF-8" standalone="no"?>
<svg
   xmlns:dc="http://purl.org/dc/elements/1.1/"
   xmlns:cc="http://creativecommons.org/ns#"
   xmlns:rdf="http://www.w3.org/1999/02/22-rdf-syntax-ns#"
   xmlns:svg="http://www.w3.org/2000/svg"
   xmlns="http://www.w3.org/2000/svg"
   xmlns:sodipodi="http://sodipodi.sourceforge.net/DTD/sodipodi-0.dtd"
   xmlns:inkscape="http://www.inkscape.org/namespaces/inkscape"
   width="235.82"
   height="300.964"
   viewBox="0 0 235.82 300.964"
   version="1.1"
   id="svg15"
   sodipodi:docname="services-remote-support.svg"
   inkscape:version="1.0.2 (e86c870879, 2021-01-15, custom)">
  <metadata
     id="metadata19">
    <rdf:RDF>
      <cc:Work
         rdf:about="">
        <dc:format>image/svg+xml</dc:format>
        <dc:type
           rdf:resource="http://purl.org/dc/dcmitype/StillImage" />
        <dc:title></dc:title>
      </cc:Work>
    </rdf:RDF>
  </metadata>
  <sodipodi:namedview
     pagecolor="#ffffff"
     bordercolor="#666666"
     borderopacity="1"
     objecttolerance="10"
     gridtolerance="10"
     guidetolerance="10"
     inkscape:pageopacity="0"
     inkscape:pageshadow="2"
     inkscape:window-width="1827"
     inkscape:window-height="1166"
     id="namedview17"
     showgrid="false"
     inkscape:zoom="3.2562035"
     inkscape:cx="117.91"
     inkscape:cy="150.48199"
     inkscape:window-x="82"
     inkscape:window-y="-11"
     inkscape:window-maximized="1"
     inkscape:current-layer="g13" />
  <defs
     id="defs7">
    <linearGradient
       id="a"
       x1="0.22"
       y1="0.203"
       x2="0.854"
       y2="0.816"
       gradientUnits="objectBoundingBox">
      <stop
         offset="0"
         stop-color="#f69334"
         id="stop2" />
      <stop
         offset="1"
         stop-color="#ec2f5a"
         id="stop4" />
    </linearGradient>
  </defs>
  <g
     transform="translate(-55.41 0)"
     id="g13">
    <g
       transform="translate(55.41 0)"
       id="g11"
       style="fill:#f69334;fill-opacity:1">
      <path
         d="M286.8,247.114a4.425,4.425,0,0,0,4.426-4.426V230.177c0-30-25.671-40.9-26.764-41.353l-.085-.034-62.12-24.057V149.681a47.925,47.925,0,0,0,12.1-13.2c13.512,0,21.4-9.942,21.4-20.276V106.35a26.91,26.91,0,0,0-.388-53.149A60.33,60.33,0,0,0,183.7.041a4.426,4.426,0,0,0-1.2,8.77,51.865,51.865,0,0,1,43.018,39.11h-4.68a8.228,8.228,0,0,0-8.219,8.218v4.628c-2.529-2.7-4.6-4.909-7.174-7.675a8.406,8.406,0,0,0-10.775-1.314,100.159,100.159,0,0,1-60.7,16.27V56.139a8.227,8.227,0,0,0-8.219-8.218h-4.7A51.3,51.3,0,0,1,163.123,8.955,4.426,4.426,0,1,0,161.754.21,60.138,60.138,0,0,0,111.191,53.2a26.911,26.911,0,0,0,.173,53.238,8.224,8.224,0,0,0,7.658,5.259h6.092a47.142,47.142,0,0,0,19.2,37.956v15.081L82.258,188.791l-.083.033c-1.093.45-26.764,11.348-26.764,41.353V290.95a10.028,10.028,0,0,0,10.016,10.014H281.264A9.976,9.976,0,0,0,291.23,291V263.342a4.426,4.426,0,1,0-8.851,0V291a1.115,1.115,0,0,1-1.114,1.113H250.348V239.589a4.426,4.426,0,1,0-8.851,0v52.523H198.712l-11.557-68.283,4.732-7.122,2.773,1.969a8.3,8.3,0,0,0,12.23-3.06l16.559-33.186,37.676,14.591c1.3.555,21.255,9.467,21.255,33.156v12.512A4.425,4.425,0,0,0,286.8,247.114ZM235.77,62.3a18.063,18.063,0,0,1,0,35.024Zm-14.306-5.526h5.455v46.075h-5.455Zm0,54.926h5.459v4.512a11.443,11.443,0,0,1-8.1,10.928A47.316,47.316,0,0,0,221.459,111.7ZM110.8,97.321a18.064,18.064,0,0,1,0-35.024Zm14.306-20.86v26.385h-5.455V56.771h5.455Zm8.851,35.07V76.92c22.532,1.5,46.214-5.2,65.239-17.535,8,8.6,12.251,13,13.411,14.5,0,40.477.928,44.068-3.523,53.753H188.256a11.634,11.634,0,0,0-10.74-7.2h-5.567a11.621,11.621,0,0,0,0,23.242h5.567a11.635,11.635,0,0,0,10.741-7.2h15.2a38.648,38.648,0,0,1-29.527,13.745h-.039C149.035,150.22,133.963,130.686,133.963,111.531Zm46.322,20.528a2.773,2.773,0,0,1-2.769,2.77h-5.567a2.77,2.77,0,0,1,0-5.54h5.567A2.773,2.773,0,0,1,180.285,132.059ZM173.3,191.017l-20.141-24.861V154.791a51.327,51.327,0,0,0,20.735,4.291h.025a47.5,47.5,0,0,0,19.488-4.186v11.3Zm0,12.492,11.363,8.07-4.541,6.835H166.482l-4.54-6.835Zm-25.967-30.442L166.892,197.2l-19.542,13.88-15.9-31.866ZM105.147,292.113V239.589a4.426,4.426,0,0,0-8.851,0v52.523H65.426a1.164,1.164,0,0,1-1.163-1.162V230.177c0-23.747,20.051-32.643,21.249-33.154l37.646-14.594,16.559,33.188h0a8.3,8.3,0,0,0,12.23,3.06l2.773-1.969,4.731,7.122-11.557,68.284H105.147Zm84.588,0H156.872l10.976-64.848h10.911Zm9.523-81.027c-3.592-2.551-3.243-2.3-19.563-13.895l19.55-24.132,15.912,6.162Z"
         transform="translate(-55.41 0)"
         fill="url(#a)"
         id="path9"
         style="fill:#f69334;fill-opacity:1" />
    </g>
  </g>
</svg>
