<?xml version="1.0" encoding="UTF-8" standalone="no"?>
<svg
   xmlns:dc="http://purl.org/dc/elements/1.1/"
   xmlns:cc="http://creativecommons.org/ns#"
   xmlns:rdf="http://www.w3.org/1999/02/22-rdf-syntax-ns#"
   xmlns:svg="http://www.w3.org/2000/svg"
   xmlns="http://www.w3.org/2000/svg"
   xmlns:sodipodi="http://sodipodi.sourceforge.net/DTD/sodipodi-0.dtd"
   xmlns:inkscape="http://www.inkscape.org/namespaces/inkscape"
   viewBox="0 0 40 57.976479"
   version="1.1"
   id="svg40"
   sodipodi:docname="services-servers-rack.svg"
   width="40"
   height="57.976479"
   inkscape:version="1.0.2 (e86c870879, 2021-01-15, custom)">
  <metadata
     id="metadata46">
    <rdf:RDF>
      <cc:Work
         rdf:about="">
        <dc:format>image/svg+xml</dc:format>
        <dc:type
           rdf:resource="http://purl.org/dc/dcmitype/StillImage" />
        <dc:title></dc:title>
      </cc:Work>
    </rdf:RDF>
  </metadata>
  <defs
     id="defs44" />
  <sodipodi:namedview
     pagecolor="#ffffff"
     bordercolor="#666666"
     borderopacity="1"
     objecttolerance="10"
     gridtolerance="10"
     guidetolerance="10"
     inkscape:pageopacity="0"
     inkscape:pageshadow="2"
     inkscape:window-width="1827"
     inkscape:window-height="1166"
     id="namedview42"
     showgrid="false"
     fit-margin-top="0"
     fit-margin-left="0"
     fit-margin-right="0"
     fit-margin-bottom="0"
     inkscape:zoom="15.75"
     inkscape:cx="7.7777778"
     inkscape:cy="29"
     inkscape:window-x="82"
     inkscape:window-y="-11"
     inkscape:window-maximized="1"
     inkscape:current-layer="svg40" />
  <path
     d="m 29,11 h 6 a 1,1 0 0 0 1,-1 V 5 A 1,1 0 0 0 35,4 h -6 a 1,1 0 0 0 -1,1 v 5 a 1,1 0 0 0 1,1 z m 1,-5 h 4 v 3 h -4 z"
     id="path2"
     style="fill:#f69334;fill-opacity:1" />
  <circle
     cx="17"
     cy="5"
     r="1"
     id="circle4"
     style="fill:#f69334;fill-opacity:1" />
  <circle
     cx="25"
     cy="5"
     r="1"
     id="circle6"
     style="fill:#f69334;fill-opacity:1" />
  <circle
     cx="21"
     cy="5"
     r="1"
     id="circle8"
     style="fill:#f69334;fill-opacity:1" />
  <path
     d="M 6,9 A 1,1 0 0 0 7,8 V 5 A 1,1 0 0 0 5,5 v 3 a 1,1 0 0 0 1,1 z"
     id="path10"
     style="fill:#f69334;fill-opacity:1" />
  <path
     d="m 29,24 h 6 a 1,1 0 0 0 1,-1 v -5 a 1,1 0 0 0 -1,-1 h -6 a 1,1 0 0 0 -1,1 v 5 a 1,1 0 0 0 1,1 z m 1,-5 h 4 v 3 h -4 z"
     id="path12"
     style="fill:#f69334;fill-opacity:1" />
  <circle
     cx="21"
     cy="18"
     r="1"
     id="circle14"
     style="fill:#f69334;fill-opacity:1" />
  <circle
     cx="17"
     cy="18"
     r="1"
     id="circle16"
     style="fill:#f69334;fill-opacity:1" />
  <circle
     cx="25"
     cy="18"
     r="1"
     id="circle18"
     style="fill:#f69334;fill-opacity:1" />
  <path
     d="m 6,22 a 1,1 0 0 0 1,-1 v -3 a 1,1 0 0 0 -2,0 v 3 a 1,1 0 0 0 1,1 z"
     id="path20"
     style="fill:#f69334;fill-opacity:1" />
  <path
     d="m 29,37 h 6 a 1,1 0 0 0 1,-1 v -5 a 1,1 0 0 0 -1,-1 h -6 a 1,1 0 0 0 -1,1 v 5 a 1,1 0 0 0 1,1 z m 1,-5 h 4 v 3 h -4 z"
     id="path22"
     style="fill:#f69334;fill-opacity:1" />
  <circle
     cx="21"
     cy="31"
     r="1"
     id="circle24"
     style="fill:#f69334;fill-opacity:1" />
  <circle
     cx="25"
     cy="31"
     r="1"
     id="circle26"
     style="fill:#f69334;fill-opacity:1" />
  <circle
     cx="17"
     cy="31"
     r="1"
     id="circle28"
     style="fill:#f69334;fill-opacity:1" />
  <circle
     cx="35"
     cy="44"
     r="1"
     id="circle30"
     style="fill:#f69334;fill-opacity:1" />
  <circle
     cx="31"
     cy="44"
     r="1"
     id="circle32"
     style="fill:#f69334;fill-opacity:1" />
  <circle
     cx="27"
     cy="44"
     r="1"
     id="circle34"
     style="fill:#f69334;fill-opacity:1" />
  <path
     d="m 6,35 a 1,1 0 0 0 1,-1 v -3 a 1,1 0 0 0 -2,0 v 3 a 1,1 0 0 0 1,1 z"
     id="path36"
     style="fill:#f69334;fill-opacity:1" />
  <path
     d="M 39,0 H 1 A 1,1 0 0 0 0,1 v 47 a 1,1 0 0 0 1,1 h 10 v 3.18 A 3,3 0 0 0 9.18,54 H 4 a 1,1 0 0 0 0,2 h 5.18 a 3,3 0 0 0 5.64,0 h 10.36 a 3,3 0 0 0 5.64,0 H 36 a 1,1 0 0 0 0,-2 H 30.82 A 3,3 0 0 0 29,52.18 V 49 h 10 a 1,1 0 0 0 1,-1 V 1 A 1,1 0 0 0 39,0 Z M 12,56 a 1,1 0 1 1 1,-1 1,1 0 0 1 -1,1 z M 25.18,54 H 14.82 A 3,3 0 0 0 13,52.18 V 49 h 14 v 3.18 A 3,3 0 0 0 25.18,54 Z M 28,56 a 1,1 0 1 1 1,-1 1,1 0 0 1 -1,1 z M 38,47 H 2 v -6 h 36 z m 0,-8 H 2 V 28 H 38 Z M 38,26 H 2 V 15 H 38 Z M 38,13 H 2 V 2 h 36 z"
     id="path38"
     style="fill:#f69334;fill-opacity:1" />
</svg>
